<?xml version="1.0" encoding="UTF-8" standalone="no"?>
<!-- Created with Inkscape (http://www.inkscape.org/) -->

<svg
   version="1.1"
   id="svg1"
   width="441.29333"
   height="200"
   viewBox="0 0 441.29333 200"
   sodipodi:docname="hero_smart_home.pdf"
   xmlns:inkscape="http://www.inkscape.org/namespaces/inkscape"
   xmlns:sodipodi="http://sodipodi.sourceforge.net/DTD/sodipodi-0.dtd"
   xmlns="http://www.w3.org/2000/svg"
   xmlns:svg="http://www.w3.org/2000/svg">
  <defs
     id="defs1" />
  <sodipodi:namedview
     id="namedview1"
     pagecolor="#ffffff"
     bordercolor="#000000"
     borderopacity="0.25"
     inkscape:showpageshadow="2"
     inkscape:pageopacity="0.0"
     inkscape:pagecheckerboard="0"
     inkscape:deskcolor="#d1d1d1">
    <inkscape:page
       x="0"
       y="0"
       inkscape:label="1"
       id="page1"
       width="441.29333"
       height="200"
       margin="0"
       bleed="0" />
  </sodipodi:namedview>
  <g
     id="g1"
     inkscape:groupmode="layer"
     inkscape:label="1">
    <g
       id="group-R5">
      <path
         id="path2"
         d="m 553.949,786.164 c 7.18,11.496 11.395,25.039 11.395,39.594 0,41.39 -33.551,74.941 -74.946,74.941 -12.105,0 -23.503,-2.933 -33.625,-8.035 -12.687,41.777 -51.496,72.184 -97.418,72.184 -56.226,0 -101.804,-45.578 -101.804,-101.805 0,-1.172 0.047,-2.332 0.086,-3.496 -10.477,7.973 -23.508,12.758 -37.692,12.758 -34.449,0 -62.375,-27.926 -62.375,-62.375 0,-8.418 1.688,-16.438 4.711,-23.766 h 391.668"
         style="fill:#1e293b;fill-opacity:1;fill-rule:nonzero;stroke:none"
         transform="matrix(0.13333333,0,0,-0.13333333,0,200)" />
      <path
         id="path3"
         d="m 1763.87,909.047 c 0.51,3.582 0.86,7.211 0.86,10.933 0,42.903 -34.79,77.688 -77.69,77.688 -9.17,0 -17.94,-1.676 -26.11,-4.598 -5.48,57.43 -53.84,102.35 -112.71,102.35 -44.88,0 -83.65,-26.11 -101.98,-63.96 -9.92,3.19 -20.48,4.95 -31.46,4.95 -56.79,0 -102.82,-46.031 -102.82,-102.816 0,-8.477 1.14,-16.668 3.07,-24.547 h 448.84"
         style="fill:#1e293b;fill-opacity:1;fill-rule:nonzero;stroke:none"
         transform="matrix(0.13333333,0,0,-0.13333333,0,200)" />
      <path
         id="path4"
         d="m 617.473,200.422 c -0.106,0 -0.211,-0.012 -0.317,-0.024 0.199,2.082 0.317,4.18 0.317,6.313 0,35.988 -29.176,65.168 -65.168,65.168 -3.325,0 -6.563,-0.328 -9.75,-0.809 -2.668,24.52 -23.422,43.61 -48.653,43.61 -27.039,0 -48.957,-21.918 -48.957,-48.961 0,-5.391 0.907,-10.571 2.516,-15.418 -7.832,3.34 -16.449,5.187 -25.496,5.187 -35.996,0 -65.172,-29.179 -65.172,-65.168 0,-4.808 0.555,-9.468 1.539,-13.98 -0.082,-0.192 -0.184,-0.36 -0.266,-0.551 -8.164,4.992 -17.726,7.922 -28,7.922 -29.738,0 -53.843,-24.109 -53.843,-53.852 0,-3.597 0.371,-7.121 1.043,-10.519 64.125,0 128.25,0 192.375,0 47.164,0.012 94.328,0.019 141.488,0.031 0.07,-0.012 0.144,-0.019 0.219,-0.031 h 11.601 v -0.078 c 19.93,2.679 35.309,19.707 35.309,40.379 0,22.519 -18.258,40.781 -40.785,40.781"
         style="fill:#0f172a;fill-opacity:1;fill-rule:nonzero;stroke:none"
         transform="matrix(0.13333333,0,0,-0.13333333,0,200)" />
      <path
         id="path5"
         d="M 469.602,116.871 H 275.738 l -0.316,1.59 c -1.473,7.41 -2.754,22.078 5.168,37.258 12.238,23.429 36.582,28.519 39.316,29.031 17.657,3.238 31.789,-2.922 38.633,-6.891 l -1.98,-3.418 c -5.133,2.969 -18.895,9.547 -35.938,6.411 -2.539,-0.461 -25.152,-5.204 -36.519,-26.973 -6.836,-13.078 -6.297,-25.777 -5.09,-33.051 h 190.59 v -3.957"
         style="fill:#94a3b8;fill-opacity:1;fill-rule:nonzero;stroke:none"
         transform="matrix(0.13333333,0,0,-0.13333333,0,200)" />
      <path
         id="path6"
         d="m 619.445,200.281 -3.945,0.289 c 0.297,3.969 0.203,7.989 -0.273,11.942 -0.407,3.367 -4.731,33.316 -31.157,48.82 -16.257,9.527 -32.824,9.008 -41.246,7.859 l -0.539,3.918 c 8.945,1.243 26.512,1.762 43.785,-8.371 27.493,-16.117 32.379,-45.937 33.082,-51.75 0.508,-4.207 0.606,-8.476 0.293,-12.707"
         style="fill:#94a3b8;fill-opacity:1;fill-rule:nonzero;stroke:none"
         transform="matrix(0.13333333,0,0,-0.13333333,0,200)" />
      <path
         id="path7"
         d="m 469.602,116.871 v 3.957 h 147.871 c 4.16,0.063 18.664,1.223 29.257,13.363 8.622,9.868 9.551,21.079 9.551,25.438 0,11.152 -4.832,19.301 -7.715,23.16 -2.511,3.371 -9.675,11.531 -21.906,14.531 -4.617,1.129 -13.902,2.391 -24.105,-1.851 -10.676,-4.438 -16.387,-12.367 -18.836,-16.699 l -3.442,1.949 c 2.7,4.769 8.989,13.511 20.758,18.402 11.25,4.68 21.473,3.289 26.567,2.039 13.472,-3.301 21.367,-12.289 24.14,-16 3.172,-4.262 8.492,-13.238 8.496,-25.531 0,-4.809 -1.023,-17.168 -10.527,-28.047 -11.668,-13.363 -27.602,-14.641 -32.207,-14.711 H 469.602"
         style="fill:#94a3b8;fill-opacity:1;fill-rule:nonzero;stroke:none"
         transform="matrix(0.13333333,0,0,-0.13333333,0,200)" />
      <path
         id="path8"
         d="m 445.547,249.711 c -2.113,6.449 -2.93,13.098 -2.43,19.769 1.203,15.879 9.629,26.68 13.192,30.579 3.562,3.89 16.796,16.589 37.57,16.589 0.008,0 0.016,0 0.023,0 15.536,0 26.758,-7.128 32.067,-11.367 l -2.473,-3.09 c -4.902,3.918 -15.266,10.5 -29.594,10.508 -0.007,0 -0.015,0 -0.023,0 -19.156,0 -31.363,-11.719 -34.649,-15.308 -3.289,-3.602 -11.058,-13.551 -12.164,-28.211 -0.464,-6.149 0.289,-12.289 2.243,-18.239 l -3.762,-1.23"
         style="fill:#94a3b8;fill-opacity:1;fill-rule:nonzero;stroke:none"
         transform="matrix(0.13333333,0,0,-0.13333333,0,200)" />
      <path
         id="path9"
         d="m 354.813,190.309 c -0.02,8.793 1.605,17.211 4.832,25.023 9.496,23.02 32.332,39.859 56.82,41.898 25.277,2.04 43.594,-11.121 50.293,-16.902 l -2.586,-2.996 c -6.324,5.457 -23.59,17.918 -47.379,15.957 -23.047,-1.918 -44.547,-17.777 -53.492,-39.461 -3.024,-7.328 -4.551,-15.246 -4.531,-23.508 l -3.957,-0.011"
         style="fill:#94a3b8;fill-opacity:1;fill-rule:nonzero;stroke:none"
         transform="matrix(0.13333333,0,0,-0.13333333,0,200)" />
      <path
         id="path10"
         d="m 471.566,118.621 -3.933,0.461 c 0.402,3.469 1.719,21.477 -11.801,34.887 -9.863,9.781 -21.781,11.492 -26.445,11.769 -6.106,0.364 -12.367,-0.679 -18.153,-3.039 l -1.488,3.672 c 6.324,2.57 13.203,3.719 19.875,3.32 5.117,-0.312 18.18,-2.191 29,-12.91 14.817,-14.703 13.383,-34.371 12.945,-38.16"
         style="fill:#94a3b8;fill-opacity:1;fill-rule:nonzero;stroke:none"
         transform="matrix(0.13333333,0,0,-0.13333333,0,200)" />
      <path
         id="path11"
         d="m 353.563,157.719 c -0.645,7.679 0.703,15.082 3.898,21.41 8.883,17.59 30.777,27.07 49.852,21.609 15.105,-4.347 26.703,-17.168 30.265,-33.468 l -3.863,-0.84 c -3.254,14.879 -13.789,26.558 -27.496,30.5 -19.317,5.55 -38.168,-5.602 -45.227,-19.59 -2.867,-5.668 -4.07,-12.34 -3.488,-19.289 l -3.941,-0.332"
         style="fill:#94a3b8;fill-opacity:1;fill-rule:nonzero;stroke:none"
         transform="matrix(0.13333333,0,0,-0.13333333,0,200)" />
      <path
         id="path12"
         d="M 2007.78,116.871 H 116.859 v 3.957 H 2007.78 v -3.957"
         style="fill:#94a3b8;fill-opacity:1;fill-rule:nonzero;stroke:none"
         transform="matrix(0.13333333,0,0,-0.13333333,0,200)" />
      <path
         id="path13"
         d="m 1170.32,743.07 h -45.33 v 146.282 h 45.33 V 743.07"
         style="fill:#0f172a;fill-opacity:1;fill-rule:nonzero;stroke:none"
         transform="matrix(0.13333333,0,0,-0.13333333,0,200)" />
      <path
         id="path14"
         d="m 1126.96,745.051 h 41.38 v 142.324 h -41.38 z m 45.34,-3.953 h -49.29 v 150.234 h 49.29 V 741.098"
         style="fill:#94a3b8;fill-opacity:1;fill-rule:nonzero;stroke:none"
         transform="matrix(0.13333333,0,0,-0.13333333,0,200)" />
      <path
         id="path15"
         d="m 1107.71,912.859 h 79.88 v -23.507 h -79.88 v 23.507"
         style="fill:#0f172a;fill-opacity:1;fill-rule:nonzero;stroke:none"
         transform="matrix(0.13333333,0,0,-0.13333333,0,200)" />
      <path
         id="path16"
         d="m 1109.69,891.332 h 75.93 v 19.551 h -75.93 z m 79.88,-3.957 h -83.84 v 27.465 h 83.84 v -27.465"
         style="fill:#94a3b8;fill-opacity:1;fill-rule:nonzero;stroke:none"
         transform="matrix(0.13333333,0,0,-0.13333333,0,200)" />
      <path
         id="path17"
         d="M 894.527,1005.43 C 772.793,883.695 651.055,761.961 529.32,640.227 V 118.852 h 730.41 V 640.227 C 1138,761.961 1016.26,883.695 894.527,1005.43"
         style="fill:#0f172a;fill-opacity:1;fill-rule:nonzero;stroke:none"
         transform="matrix(0.13333333,0,0,-0.13333333,0,200)" />
      <path
         id="path18"
         d="M 531.297,120.828 H 1257.76 V 639.406 L 894.527,1002.63 531.297,639.406 Z m 730.413,-3.957 H 527.344 v 524.172 l 0.578,0.586 366.605,366.601 1.399,-1.4 365.784,-365.787 V 116.871"
         style="fill:#94a3b8;fill-opacity:1;fill-rule:nonzero;stroke:none"
         transform="matrix(0.13333333,0,0,-0.13333333,0,200)" />
      <path
         id="path19"
         d="m 1689.17,118.852 h -429.44 v 311.679 h 429.44 V 118.852"
         style="fill:#0f172a;fill-opacity:1;fill-rule:nonzero;stroke:none"
         transform="matrix(0.13333333,0,0,-0.13333333,0,200)" />
      <path
         id="path20"
         d="m 1261.71,120.828 h 425.48 v 307.731 h -425.48 z m 429.44,-3.957 h -433.39 v 315.641 h 433.39 V 116.871"
         style="fill:#94a3b8;fill-opacity:1;fill-rule:nonzero;stroke:none"
         transform="matrix(0.13333333,0,0,-0.13333333,0,200)" />
      <path
         id="path21"
         d="m 1775.45,416.68 c -57.52,57.519 -115.04,115.047 -172.56,172.566 -114.39,0 -228.77,0 -343.16,0 V 416.68 c 171.91,0 343.81,0 515.72,0"
         style="fill:#0f172a;fill-opacity:1;fill-rule:nonzero;stroke:none"
         transform="matrix(0.13333333,0,0,-0.13333333,0,200)" />
      <path
         id="path22"
         d="m 1261.71,418.66 h 508.96 l -168.6,168.61 h -340.36 z m 518.52,-3.949 h -522.47 v 176.516 h 345.95 l 0.57,-0.579 175.95,-175.937"
         style="fill:#94a3b8;fill-opacity:1;fill-rule:nonzero;stroke:none"
         transform="matrix(0.13333333,0,0,-0.13333333,0,200)" />
      <path
         id="path23"
         d="M 1689.17,152.34 H 529.32 v 3.961 h 1159.85 v -3.961"
         style="fill:#94a3b8;fill-opacity:1;fill-rule:nonzero;stroke:none"
         transform="matrix(0.13333333,0,0,-0.13333333,0,200)" />
      <path
         id="path24"
         d="M 1294.4,603.098 1311.96,620.66 894.527,1038.1 735.539,879.105 v 0 L 477.094,620.66 494.656,603.098 735.539,843.98 976.418,603.098 993.98,620.66 753.102,861.543 894.527,1002.97 1294.4,603.098"
         style="fill:#0f172a;fill-opacity:1;fill-rule:nonzero;stroke:none"
         transform="matrix(0.13333333,0,0,-0.13333333,0,200)" />
      <path
         id="path25"
         d="m 943.73,118.852 h -3.953 V 636.945 L 735.535,841.184 530.719,636.363 527.922,639.164 735.535,846.777 943.73,638.582 v -519.73"
         style="fill:#94a3b8;fill-opacity:1;fill-rule:nonzero;stroke:none"
         transform="matrix(0.13333333,0,0,-0.13333333,0,200)" />
      <path
         id="path26"
         d="m 976.422,600.301 -21.969,21.969 2.797,2.8 19.172,-19.172 14.762,14.762 -240.879,240.887 144.222,144.223 1.399,-1.4 365.204,-365.198 -2.79,-2.805 L 894.527,1000.17 755.898,861.547 996.777,620.66 976.422,600.301"
         style="fill:#94a3b8;fill-opacity:1;fill-rule:nonzero;stroke:none"
         transform="matrix(0.13333333,0,0,-0.13333333,0,200)" />
      <path
         id="path27"
         d="m 1294.4,600.301 -20.6,20.601 2.79,2.801 17.81,-17.805 14.76,14.762 -414.633,414.64 -414.636,-414.64 14.761,-14.762 23.266,23.262 2.797,-2.801 -26.063,-26.058 -20.355,20.359 1.398,1.403 418.832,418.827 1.399,-1.39 418.834,-418.84 -20.36,-20.359"
         style="fill:#94a3b8;fill-opacity:1;fill-rule:nonzero;stroke:none"
         transform="matrix(0.13333333,0,0,-0.13333333,0,200)" />
      <path
         id="path28"
         d="m 735.539,608.242 v 0 c -26.812,0 -48.551,-21.734 -48.551,-48.551 v -81.16 h 48.551 48.547 v 81.16 c 0,26.817 -21.734,48.551 -48.547,48.551 v 0"
         style="fill:#1e293b;fill-opacity:1;fill-rule:nonzero;stroke:none"
         transform="matrix(0.13333333,0,0,-0.13333333,0,200)" />
      <path
         id="path29"
         d="m 737.516,478.531 h -3.957 v 129.711 h 3.957 V 478.531"
         style="fill:#94a3b8;fill-opacity:1;fill-rule:nonzero;stroke:none"
         transform="matrix(0.13333333,0,0,-0.13333333,0,200)" />
      <path
         id="path30"
         d="m 784.086,541.406 h -97.098 v 3.957 h 97.098 v -3.957"
         style="fill:#94a3b8;fill-opacity:1;fill-rule:nonzero;stroke:none"
         transform="matrix(0.13333333,0,0,-0.13333333,0,200)" />
      <path
         id="path31"
         d="m 1053.52,608.242 v 0 c 26.81,0 48.55,-21.734 48.55,-48.551 v -81.16 h -48.55 -48.55 v 81.16 c 0,26.817 21.73,48.551 48.55,48.551 v 0"
         style="fill:#1e293b;fill-opacity:1;fill-rule:nonzero;stroke:none"
         transform="matrix(0.13333333,0,0,-0.13333333,0,200)" />
      <path
         id="path32"
         d="m 1055.5,478.531 h -3.96 v 129.711 h 3.96 V 478.531"
         style="fill:#94a3b8;fill-opacity:1;fill-rule:nonzero;stroke:none"
         transform="matrix(0.13333333,0,0,-0.13333333,0,200)" />
      <path
         id="path33"
         d="m 1102.07,541.406 h -97.1 v 3.957 h 97.1 v -3.957"
         style="fill:#94a3b8;fill-opacity:1;fill-rule:nonzero;stroke:none"
         transform="matrix(0.13333333,0,0,-0.13333333,0,200)" />
      <path
         id="path34"
         d="m 1053.52,330.129 v 0 c 26.81,0 48.55,-21.731 48.55,-48.551 v -81.156 h -48.55 -48.55 v 81.156 c 0,26.82 21.73,48.551 48.55,48.551 v 0"
         style="fill:#1e293b;fill-opacity:1;fill-rule:nonzero;stroke:none"
         transform="matrix(0.13333333,0,0,-0.13333333,0,200)" />
      <path
         id="path35"
         d="m 1055.5,200.422 h -3.96 v 129.707 h 3.96 V 200.422"
         style="fill:#94a3b8;fill-opacity:1;fill-rule:nonzero;stroke:none"
         transform="matrix(0.13333333,0,0,-0.13333333,0,200)" />
      <path
         id="path36"
         d="m 1102.07,263.301 h -97.1 v 3.961 h 97.1 v -3.961"
         style="fill:#94a3b8;fill-opacity:1;fill-rule:nonzero;stroke:none"
         transform="matrix(0.13333333,0,0,-0.13333333,0,200)" />
      <path
         id="path37"
         d="m 941.891,430.531 c -0.047,0 -0.09,0 -0.137,0 -137.477,0 -274.953,0 -412.434,0 -0.043,0 -0.09,0 -0.132,0 -21.551,-21.543 -43.102,-43.09 -64.649,-64.64 v -22.672 h 542.001 v 22.672 c -21.552,21.55 -43.102,43.097 -64.649,64.64"
         style="fill:#0f172a;fill-opacity:1;fill-rule:nonzero;stroke:none"
         transform="matrix(0.13333333,0,0,-0.13333333,0,200)" />
      <path
         id="path38"
         d="m 466.516,345.199 h 538.044 v 19.871 l -63.49,63.489 H 530.008 L 466.516,365.07 Z m 542.004,-3.961 H 462.559 v 25.473 l 65.808,65.801 h 414.207 l 0.715,-0.571 65.231,-65.23 v -25.473"
         style="fill:#94a3b8;fill-opacity:1;fill-rule:nonzero;stroke:none"
         transform="matrix(0.13333333,0,0,-0.13333333,0,200)" />
      <path
         id="path39"
         d="M 670.891,363.91 H 464.539 v 3.961 h 206.352 v -3.961"
         style="fill:#94a3b8;fill-opacity:1;fill-rule:nonzero;stroke:none"
         transform="matrix(0.13333333,0,0,-0.13333333,0,200)" />
      <path
         id="path40"
         d="M 1006.54,363.91 H 800.184 v 3.961 h 206.356 v -3.961"
         style="fill:#94a3b8;fill-opacity:1;fill-rule:nonzero;stroke:none"
         transform="matrix(0.13333333,0,0,-0.13333333,0,200)" />
      <path
         id="path41"
         d="M 1004.97,341.238 H 462.969 v 3.961 h 542.001 v -3.961"
         style="fill:#94a3b8;fill-opacity:1;fill-rule:nonzero;stroke:none"
         transform="matrix(0.13333333,0,0,-0.13333333,0,200)" />
      <path
         id="path42"
         d="m 648.223,118.852 h 18.609 V 343.219 H 648.223 V 118.852"
         style="fill:#0f172a;fill-opacity:1;fill-rule:nonzero;stroke:none"
         transform="matrix(0.13333333,0,0,-0.13333333,0,200)" />
      <path
         id="path43"
         d="m 650.199,120.828 h 14.653 v 220.41 h -14.653 z m 18.61,-3.957 h -22.563 v 228.328 h 22.563 V 116.871"
         style="fill:#94a3b8;fill-opacity:1;fill-rule:nonzero;stroke:none"
         transform="matrix(0.13333333,0,0,-0.13333333,0,200)" />
      <path
         id="path44"
         d="m 804.246,118.852 h 18.606 V 343.219 H 804.246 V 118.852"
         style="fill:#0f172a;fill-opacity:1;fill-rule:nonzero;stroke:none"
         transform="matrix(0.13333333,0,0,-0.13333333,0,200)" />
      <path
         id="path45"
         d="m 806.223,120.828 h 14.652 v 220.41 h -14.652 z m 18.605,-3.957 h -22.562 v 228.328 h 22.562 V 116.871"
         style="fill:#94a3b8;fill-opacity:1;fill-rule:nonzero;stroke:none"
         transform="matrix(0.13333333,0,0,-0.13333333,0,200)" />
      <path
         id="path46"
         d="m 821.453,341.82 -85.918,85.918 -85.914,-85.918 -2.797,2.801 88.711,88.707 88.715,-88.707 -2.797,-2.801"
         style="fill:#94a3b8;fill-opacity:1;fill-rule:nonzero;stroke:none"
         transform="matrix(0.13333333,0,0,-0.13333333,0,200)" />
      <path
         id="path47"
         d="M 687.074,294.559 V 118.852 H 784 v 175.707 h -96.926"
         style="fill:#0f172a;fill-opacity:1;fill-rule:nonzero;stroke:none"
         transform="matrix(0.13333333,0,0,-0.13333333,0,200)" />
      <path
         id="path48"
         d="m 689.055,120.828 h 92.965 v 171.754 h -92.965 z m 96.922,-3.957 H 685.098 V 296.539 H 785.977 V 116.871"
         style="fill:#94a3b8;fill-opacity:1;fill-rule:nonzero;stroke:none"
         transform="matrix(0.13333333,0,0,-0.13333333,0,200)" />
      <path
         id="path49"
         d="m 784,292.582 h -96.926 v 3.957 H 784 v -3.957"
         style="fill:#94a3b8;fill-opacity:1;fill-rule:nonzero;stroke:none"
         transform="matrix(0.13333333,0,0,-0.13333333,0,200)" />
      <path
         id="path50"
         d="m 784,234.012 h -96.926 v 3.957 H 784 v -3.957"
         style="fill:#94a3b8;fill-opacity:1;fill-rule:nonzero;stroke:none"
         transform="matrix(0.13333333,0,0,-0.13333333,0,200)" />
      <path
         id="path51"
         d="m 784,175.441 h -96.926 v 3.957 H 784 v -3.957"
         style="fill:#94a3b8;fill-opacity:1;fill-rule:nonzero;stroke:none"
         transform="matrix(0.13333333,0,0,-0.13333333,0,200)" />
      <path
         id="path52"
         d="m 784,116.871 h -96.926 v 3.957 H 784 v -3.957"
         style="fill:#94a3b8;fill-opacity:1;fill-rule:nonzero;stroke:none"
         transform="matrix(0.13333333,0,0,-0.13333333,0,200)" />
      <path
         id="path53"
         d="m 737.516,118.852 h -3.957 v 175.707 h 3.957 V 118.852"
         style="fill:#94a3b8;fill-opacity:1;fill-rule:nonzero;stroke:none"
         transform="matrix(0.13333333,0,0,-0.13333333,0,200)" />
      <path
         id="path54"
         d="m 605.719,235.988 h -38.004 v 58.571 h 38.004 v -58.571"
         style="fill:#1e293b;fill-opacity:1;fill-rule:nonzero;stroke:none"
         transform="matrix(0.13333333,0,0,-0.13333333,0,200)" />
      <path
         id="path55"
         d="m 865.16,235.988 h 38.008 v 58.571 H 865.16 v -58.571"
         style="fill:#1e293b;fill-opacity:1;fill-rule:nonzero;stroke:none"
         transform="matrix(0.13333333,0,0,-0.13333333,0,200)" />
      <path
         id="path56"
         d="m 939.043,875.508 c 0,-24.586 -19.93,-44.516 -44.516,-44.516 -24.586,0 -44.515,19.93 -44.515,44.516 0,24.582 19.929,44.512 44.515,44.512 24.586,0 44.516,-19.93 44.516,-44.512"
         style="fill:#1e293b;fill-opacity:1;fill-rule:nonzero;stroke:none"
         transform="matrix(0.13333333,0,0,-0.13333333,0,200)" />
      <path
         id="path57"
         d="m 896.508,830.992 h -3.957 v 89.028 h 3.957 v -89.028"
         style="fill:#94a3b8;fill-opacity:1;fill-rule:nonzero;stroke:none"
         transform="matrix(0.13333333,0,0,-0.13333333,0,200)" />
      <path
         id="path58"
         d="m 939.043,873.527 h -89.031 v 3.957 h 89.031 v -3.957"
         style="fill:#94a3b8;fill-opacity:1;fill-rule:nonzero;stroke:none"
         transform="matrix(0.13333333,0,0,-0.13333333,0,200)" />
      <path
         id="path59"
         d="m 1609.35,118.852 h -269.8 V 314.68 h 269.8 V 118.852"
         style="fill:#0f172a;fill-opacity:1;fill-rule:nonzero;stroke:none"
         transform="matrix(0.13333333,0,0,-0.13333333,0,200)" />
      <path
         id="path60"
         d="m 1341.53,120.828 h 265.85 v 191.871 h -265.85 z m 269.8,-3.957 h -273.76 v 199.777 h 273.76 V 116.871"
         style="fill:#94a3b8;fill-opacity:1;fill-rule:nonzero;stroke:none"
         transform="matrix(0.13333333,0,0,-0.13333333,0,200)" />
      <path
         id="path61"
         d="m 1609.35,312.699 h -269.8 v 3.949 h 269.8 v -3.949"
         style="fill:#94a3b8;fill-opacity:1;fill-rule:nonzero;stroke:none"
         transform="matrix(0.13333333,0,0,-0.13333333,0,200)" />
      <path
         id="path62"
         d="m 1609.35,263.738 h -269.8 v 3.961 h 269.8 v -3.961"
         style="fill:#94a3b8;fill-opacity:1;fill-rule:nonzero;stroke:none"
         transform="matrix(0.13333333,0,0,-0.13333333,0,200)" />
      <path
         id="path63"
         d="m 1609.35,214.781 h -269.8 v 3.957 h 269.8 v -3.957"
         style="fill:#94a3b8;fill-opacity:1;fill-rule:nonzero;stroke:none"
         transform="matrix(0.13333333,0,0,-0.13333333,0,200)" />
      <path
         id="path64"
         d="m 1609.35,165.828 h -269.8 v 3.961 h 269.8 v -3.961"
         style="fill:#94a3b8;fill-opacity:1;fill-rule:nonzero;stroke:none"
         transform="matrix(0.13333333,0,0,-0.13333333,0,200)" />
      <path
         id="path65"
         d="m 1609.35,116.871 h -269.8 v 3.957 h 269.8 v -3.957"
         style="fill:#94a3b8;fill-opacity:1;fill-rule:nonzero;stroke:none"
         transform="matrix(0.13333333,0,0,-0.13333333,0,200)" />
      <path
         id="path66"
         d="m 1376.85,387.301 h -37.3 v -43.66 h 37.3 v 43.66"
         style="fill:#1e293b;fill-opacity:1;fill-rule:nonzero;stroke:none"
         transform="matrix(0.13333333,0,0,-0.13333333,0,200)" />
      <path
         id="path67"
         d="m 1434.98,387.301 h -37.31 v -43.66 h 37.31 v 43.66"
         style="fill:#1e293b;fill-opacity:1;fill-rule:nonzero;stroke:none"
         transform="matrix(0.13333333,0,0,-0.13333333,0,200)" />
      <path
         id="path68"
         d="m 1493.1,387.301 h -37.3 v -43.66 h 37.3 v 43.66"
         style="fill:#1e293b;fill-opacity:1;fill-rule:nonzero;stroke:none"
         transform="matrix(0.13333333,0,0,-0.13333333,0,200)" />
      <path
         id="path69"
         d="m 1551.23,387.301 h -37.31 v -43.66 h 37.31 v 43.66"
         style="fill:#1e293b;fill-opacity:1;fill-rule:nonzero;stroke:none"
         transform="matrix(0.13333333,0,0,-0.13333333,0,200)" />
      <path
         id="path70"
         d="m 1609.35,387.301 h -37.3 v -43.66 h 37.3 v 43.66"
         style="fill:#1e293b;fill-opacity:1;fill-rule:nonzero;stroke:none"
         transform="matrix(0.13333333,0,0,-0.13333333,0,200)" />
      <path
         id="path71"
         d="m 1800.6,118.852 h -3.95 v 179.98 h 3.95 v -179.98"
         style="fill:#94a3b8;fill-opacity:1;fill-rule:nonzero;stroke:none"
         transform="matrix(0.13333333,0,0,-0.13333333,0,200)" />
      <path
         id="path72"
         d="m 1797.33,143.898 -84.85,84.852 2.8,2.801 84.85,-84.852 -2.8,-2.801"
         style="fill:#94a3b8;fill-opacity:1;fill-rule:nonzero;stroke:none"
         transform="matrix(0.13333333,0,0,-0.13333333,0,200)" />
      <path
         id="path73"
         d="m 1800.71,166.41 -2.8,2.801 43.86,43.859 2.8,-2.8 -43.86,-43.86"
         style="fill:#94a3b8;fill-opacity:1;fill-rule:nonzero;stroke:none"
         transform="matrix(0.13333333,0,0,-0.13333333,0,200)" />
      <path
         id="path74"
         d="m 1865.26,298.832 c 0,-36.801 -29.83,-66.641 -66.64,-66.641 -36.8,0 -66.63,29.84 -66.63,66.641 0,36.797 29.83,66.637 66.63,66.637 36.81,0 66.64,-29.84 66.64,-66.637"
         style="fill:#0f172a;fill-opacity:1;fill-rule:nonzero;stroke:none"
         transform="matrix(0.13333333,0,0,-0.13333333,0,200)" />
      <path
         id="path75"
         d="m 1798.62,363.488 c -35.65,0 -64.66,-29.008 -64.66,-64.656 0,-35.652 29.01,-64.66 64.66,-64.66 35.66,0 64.67,29.008 64.67,64.66 0,35.648 -29.01,64.656 -64.67,64.656 z m 0,-133.277 c -37.83,0 -68.61,30.777 -68.61,68.621 0,37.84 30.78,68.617 68.61,68.617 37.84,0 68.62,-30.777 68.62,-68.617 0,-37.844 -30.78,-68.621 -68.62,-68.621"
         style="fill:#94a3b8;fill-opacity:1;fill-rule:nonzero;stroke:none"
         transform="matrix(0.13333333,0,0,-0.13333333,0,200)" />
      <path
         id="path76"
         d="m 1746.15,230.141 c 0,-17.821 -14.44,-32.27 -32.27,-32.27 -17.82,0 -32.27,14.449 -32.27,32.27 0,17.828 14.45,32.269 32.27,32.269 17.83,0 32.27,-14.441 32.27,-32.269"
         style="fill:#0f172a;fill-opacity:1;fill-rule:nonzero;stroke:none"
         transform="matrix(0.13333333,0,0,-0.13333333,0,200)" />
      <path
         id="path77"
         d="m 1713.88,260.441 c -16.7,0 -30.29,-13.589 -30.29,-30.293 0,-16.707 13.59,-30.296 30.29,-30.296 16.7,0 30.29,13.589 30.29,30.296 0,16.704 -13.59,30.293 -30.29,30.293 z m 0,-64.55 c -18.88,0 -34.25,15.371 -34.25,34.257 0,18.883 15.37,34.243 34.25,34.243 18.89,0 34.25,-15.36 34.25,-34.243 0,-18.886 -15.36,-34.257 -34.25,-34.257"
         style="fill:#94a3b8;fill-opacity:1;fill-rule:nonzero;stroke:none"
         transform="matrix(0.13333333,0,0,-0.13333333,0,200)" />
      <path
         id="path78"
         d="m 1887.72,230.141 c 0,-24.602 -19.94,-44.551 -44.55,-44.551 -24.6,0 -44.55,19.949 -44.55,44.551 0,24.609 19.95,44.55 44.55,44.55 24.61,0 44.55,-19.941 44.55,-44.55"
         style="fill:#0f172a;fill-opacity:1;fill-rule:nonzero;stroke:none"
         transform="matrix(0.13333333,0,0,-0.13333333,0,200)" />
      <path
         id="path79"
         d="m 1843.17,272.711 c -23.47,0 -42.57,-19.09 -42.57,-42.563 0,-23.476 19.1,-42.578 42.57,-42.578 23.48,0 42.58,19.102 42.58,42.578 0,23.473 -19.1,42.563 -42.58,42.563 z m 0,-89.09 c -25.65,0 -46.52,20.867 -46.52,46.527 0,25.653 20.87,46.524 46.52,46.524 25.66,0 46.53,-20.871 46.53,-46.524 0,-25.66 -20.87,-46.527 -46.53,-46.527"
         style="fill:#94a3b8;fill-opacity:1;fill-rule:nonzero;stroke:none"
         transform="matrix(0.13333333,0,0,-0.13333333,0,200)" />
      <path
         id="path80"
         d="m 1747.94,118.852 c 3.42,6.378 5.38,13.66 5.38,21.41 0,25.039 -20.3,45.328 -45.34,45.328 -15.19,0 -28.6,-7.488 -36.83,-18.961 -2.71,0.75 -5.56,1.18 -8.51,1.18 -17.69,0 -32.03,-14.348 -32.03,-32.039 0,-6.219 1.8,-12.008 4.87,-16.918 h 112.46"
         style="fill:#0f172a;fill-opacity:1;fill-rule:nonzero;stroke:none"
         transform="matrix(0.13333333,0,0,-0.13333333,0,200)" />
      <path
         id="path81"
         d="m 1636.6,120.828 h 110.1 c 2.13,4.684 9.47,23.66 -1.78,42.07 -11.32,18.512 -31.76,20.442 -34.06,20.59 -2.09,0.153 -20.93,0.922 -34.56,-13.687 -8.57,-9.18 -10.86,-19.789 -11.47,-25.301 l -3.93,0.441 c 0.5,4.547 2.06,12.309 6.88,20.161 -4.4,0.738 -12.69,1.168 -20.8,-3.711 -11.77,-7.082 -13.86,-19.532 -14.16,-21.95 -1.01,-8.25 1.71,-14.91 3.78,-18.613 z m 112.54,-3.957 h -114.79 l -0.58,0.949 c -2.36,3.879 -6.12,11.899 -4.87,22.102 0.34,2.738 2.7,16.828 16.04,24.859 10.4,6.258 21.01,4.84 25.25,3.867 0.97,1.301 2.04,2.59 3.22,3.852 14.57,15.609 34,15.211 37.72,14.941 2.51,-0.171 24.81,-2.269 37.16,-22.48 13.84,-22.641 1.92,-46.039 1.41,-47.031 l -0.56,-1.059"
         style="fill:#94a3b8;fill-opacity:1;fill-rule:nonzero;stroke:none"
         transform="matrix(0.13333333,0,0,-0.13333333,0,200)" />
      <path
         id="path82"
         d="m 1957.67,118.84 c 0.37,1.871 0.58,3.789 0.58,5.769 0,16.403 -13.3,29.7 -29.7,29.7 -8,0 -15.24,-3.168 -20.58,-8.309 -8.51,13.109 -23.26,21.789 -40.06,21.789 -26.38,0 -47.77,-21.391 -47.77,-47.769 0,-0.399 0.05,-0.79 0.06,-1.18 h 137.47"
         style="fill:#0f172a;fill-opacity:1;fill-rule:nonzero;stroke:none"
         transform="matrix(0.13333333,0,0,-0.13333333,0,200)" />
      <path
         id="path83"
         d="m 1957.68,116.859 h -139.45 l -0.01,1.969 c -0.12,19.781 11.05,37.91 28.48,46.192 24.77,11.761 48.09,-3.141 48.33,-3.301 15.63,-10.168 20.38,-25.821 21.7,-32.078 l -3.87,-0.813 c -1.22,5.774 -5.6,20.211 -19.99,29.582 -0.22,0.141 -21.67,13.852 -44.47,3.031 -15.47,-7.339 -25.59,-23.14 -26.2,-40.621 h 135.48 v -3.961"
         style="fill:#94a3b8;fill-opacity:1;fill-rule:nonzero;stroke:none"
         transform="matrix(0.13333333,0,0,-0.13333333,0,200)" />
      <path
         id="path84"
         d="m 1956.15,127.129 c -1.65,11.781 -10.04,21.57 -20.88,24.34 -12.97,3.32 -23.5,-4.797 -24.67,-5.739 l -2.48,3.079 c 2.15,1.73 13.6,10.203 28.13,6.5 12.57,-3.219 21.92,-14.071 23.82,-27.629 l -3.92,-0.551"
         style="fill:#94a3b8;fill-opacity:1;fill-rule:nonzero;stroke:none"
         transform="matrix(0.13333333,0,0,-0.13333333,0,200)" />
      <path
         id="path85"
         d="m 525.176,937.273 h -3.957 v 21.098 h 3.957 v -21.098"
         style="fill:#00d4ff;fill-opacity:1;fill-rule:nonzero;stroke:none"
         transform="matrix(0.13333333,0,0,-0.13333333,0,200)" />
      <path
         id="path86"
         d="m 525.176,858.773 h -3.957 v 39.25 h 3.957 z m 0,-78.492 h -3.957 v 39.25 h 3.957 v -39.25"
         style="fill:#00d4ff;fill-opacity:1;fill-rule:nonzero;stroke:none"
         transform="matrix(0.13333333,0,0,-0.13333333,0,200)" />
      <path
         id="path87"
         d="m 525.176,719.938 h -3.957 v 21.101 h 3.957 v -21.101"
         style="fill:#00d4ff;fill-opacity:1;fill-rule:nonzero;stroke:none"
         transform="matrix(0.13333333,0,0,-0.13333333,0,200)" />
      <path
         id="path88"
         d="m 824.77,1271.36 h -3.957 v 21.1 h 3.957 v -21.1"
         style="fill:#00d4ff;fill-opacity:1;fill-rule:nonzero;stroke:none"
         transform="matrix(0.13333333,0,0,-0.13333333,0,200)" />
      <path
         id="path89"
         d="m 824.77,1196.2 h -3.957 v 37.58 h 3.957 z m 0,-75.18 h -3.957 v 37.59 h 3.957 z m 0,-75.17 h -3.957 v 37.58 h 3.957 v -37.58"
         style="fill:#00d4ff;fill-opacity:1;fill-rule:nonzero;stroke:none"
         transform="matrix(0.13333333,0,0,-0.13333333,0,200)" />
      <path
         id="path90"
         d="m 824.77,987.16 h -3.957 v 21.1 h 3.957 v -21.1"
         style="fill:#00d4ff;fill-opacity:1;fill-rule:nonzero;stroke:none"
         transform="matrix(0.13333333,0,0,-0.13333333,0,200)" />
      <path
         id="path91"
         d="m 1223.95,1130.29 h -3.96 v 21.1 h 3.96 v -21.1"
         style="fill:#00d4ff;fill-opacity:1;fill-rule:nonzero;stroke:none"
         transform="matrix(0.13333333,0,0,-0.13333333,0,200)" />
      <path
         id="path92"
         d="m 1223.95,1050.05 h -3.96 v 40.12 h 3.96 z m 0,-80.237 h -3.96 v 40.117 h 3.96 z m 0,-80.243 h -3.96 v 40.121 h 3.96 z m 0,-80.238 h -3.96 v 40.117 h 3.96 v -40.117"
         style="fill:#00d4ff;fill-opacity:1;fill-rule:nonzero;stroke:none"
         transform="matrix(0.13333333,0,0,-0.13333333,0,200)" />
      <path
         id="path93"
         d="m 1223.95,748.113 h -3.96 v 21.098 h 3.96 v -21.098"
         style="fill:#00d4ff;fill-opacity:1;fill-rule:nonzero;stroke:none"
         transform="matrix(0.13333333,0,0,-0.13333333,0,200)" />
      <path
         id="path94"
         d="m 1443.86,867.496 h -3.95 v 21.102 h 3.95 v -21.102"
         style="fill:#00d4ff;fill-opacity:1;fill-rule:nonzero;stroke:none"
         transform="matrix(0.13333333,0,0,-0.13333333,0,200)" />
      <path
         id="path95"
         d="m 1443.86,777.211 h -3.95 v 45.144 h 3.95 z m 0,-90.277 h -3.95 v 45.14 h 3.95 v -45.14"
         style="fill:#00d4ff;fill-opacity:1;fill-rule:nonzero;stroke:none"
         transform="matrix(0.13333333,0,0,-0.13333333,0,200)" />
      <path
         id="path96"
         d="m 1443.86,620.695 h -3.95 v 21.102 h 3.95 v -21.102"
         style="fill:#00d4ff;fill-opacity:1;fill-rule:nonzero;stroke:none"
         transform="matrix(0.13333333,0,0,-0.13333333,0,200)" />
      <path
         id="path97"
         d="m 372.098,531.723 h -21.102 v 3.957 h 21.102 v -3.957"
         style="fill:#00d4ff;fill-opacity:1;fill-rule:nonzero;stroke:none"
         transform="matrix(0.13333333,0,0,-0.13333333,0,200)" />
      <path
         id="path98"
         d="m 446.566,531.723 h -37.234 v 3.957 h 37.234 v -3.957"
         style="fill:#00d4ff;fill-opacity:1;fill-rule:nonzero;stroke:none"
         transform="matrix(0.13333333,0,0,-0.13333333,0,200)" />
      <path
         id="path99"
         d="m 504.898,531.723 h -21.097 v 3.957 h 21.097 v -3.957"
         style="fill:#00d4ff;fill-opacity:1;fill-rule:nonzero;stroke:none"
         transform="matrix(0.13333333,0,0,-0.13333333,0,200)" />
      <path
         id="path100"
         d="m 924.082,1279.87 c 0,-55.94 -45.352,-101.29 -101.293,-101.29 -55.941,0 -101.289,45.35 -101.289,101.29 0,55.94 45.348,101.29 101.289,101.29 55.941,0 101.293,-45.35 101.293,-101.29"
         style="fill:#0f172a;fill-opacity:1;fill-rule:nonzero;stroke:none"
         transform="matrix(0.13333333,0,0,-0.13333333,0,200)" />
      <path
         id="path101"
         d="m 822.789,1379.18 c -54.758,0 -99.312,-44.55 -99.312,-99.31 0,-54.76 44.554,-99.32 99.312,-99.32 54.762,0 99.313,44.56 99.313,99.32 0,54.76 -44.551,99.31 -99.313,99.31 z m 0,-202.58 c -56.941,0 -103.269,46.33 -103.269,103.27 0,56.94 46.328,103.27 103.269,103.27 56.945,0 103.27,-46.33 103.27,-103.27 0,-56.94 -46.325,-103.27 -103.27,-103.27"
         style="fill:#94a3b8;fill-opacity:1;fill-rule:nonzero;stroke:none"
         transform="matrix(0.13333333,0,0,-0.13333333,0,200)" />
      <path
         id="path102"
         d="m 899.668,1279.87 c -2.281,-3.3 -28.855,-40.3 -76.879,-40.3 -48.019,0 -74.598,37 -76.875,40.3 2.277,3.29 28.856,40.3 76.875,40.3 48.024,0 74.598,-37.01 76.879,-40.3"
         style="fill:#0f172a;fill-opacity:1;fill-rule:nonzero;stroke:none"
         transform="matrix(0.13333333,0,0,-0.13333333,0,200)" />
      <path
         id="path103"
         d="m 748.348,1279.87 c 5.336,-7.25 30.761,-38.32 74.445,-38.32 43.68,0 69.105,31.07 74.441,38.32 -5.336,7.25 -30.761,38.32 -74.441,38.32 -43.684,0 -69.109,-31.07 -74.445,-38.32 z m 74.445,-42.28 c -48.648,0 -75.594,36.94 -78.508,41.16 l -0.777,1.12 0.777,1.12 c 2.914,4.21 29.86,41.15 78.508,41.15 48.645,0 75.59,-36.94 78.5,-41.15 l 0.777,-1.12 -0.777,-1.12 c -2.91,-4.22 -29.855,-41.16 -78.5,-41.16"
         style="fill:#94a3b8;fill-opacity:1;fill-rule:nonzero;stroke:none"
         transform="matrix(0.13333333,0,0,-0.13333333,0,200)" />
      <path
         id="path104"
         d="m 853.965,1279.87 c 0,-17.22 -13.957,-31.17 -31.176,-31.17 -17.215,0 -31.172,13.95 -31.172,31.17 0,17.22 13.957,31.17 31.172,31.17 17.219,0 31.176,-13.95 31.176,-31.17"
         style="fill:#0f172a;fill-opacity:1;fill-rule:nonzero;stroke:none"
         transform="matrix(0.13333333,0,0,-0.13333333,0,200)" />
      <path
         id="path105"
         d="m 822.789,1309.06 c -16.098,0 -29.191,-13.1 -29.191,-29.19 0,-16.1 13.093,-29.19 29.191,-29.19 16.098,0 29.195,13.09 29.195,29.19 0,16.09 -13.097,29.19 -29.195,29.19 z m 0,-62.34 c -18.277,0 -33.148,14.87 -33.148,33.15 0,18.27 14.871,33.15 33.148,33.15 18.281,0 33.152,-14.88 33.152,-33.15 0,-18.28 -14.871,-33.15 -33.152,-33.15"
         style="fill:#94a3b8;fill-opacity:1;fill-rule:nonzero;stroke:none"
         transform="matrix(0.13333333,0,0,-0.13333333,0,200)" />
      <path
         id="path106"
         d="m 832.078,1279.87 c 0,-5.13 -4.156,-9.29 -9.289,-9.29 -5.129,0 -9.285,4.16 -9.285,9.29 0,5.13 4.156,9.29 9.285,9.29 5.133,0 9.289,-4.16 9.289,-9.29"
         style="fill:#0f172a;fill-opacity:1;fill-rule:nonzero;stroke:none"
         transform="matrix(0.13333333,0,0,-0.13333333,0,200)" />
      <path
         id="path107"
         d="m 822.789,1287.18 c -4.027,0 -7.309,-3.28 -7.309,-7.31 0,-4.03 3.282,-7.31 7.309,-7.31 4.031,0 7.309,3.28 7.309,7.31 0,4.03 -3.278,7.31 -7.309,7.31 z m 0,-18.58 c -6.211,0 -11.262,5.06 -11.262,11.27 0,6.21 5.051,11.26 11.262,11.26 6.215,0 11.266,-5.05 11.266,-11.26 0,-6.21 -5.051,-11.27 -11.266,-11.27"
         style="fill:#94a3b8;fill-opacity:1;fill-rule:nonzero;stroke:none"
         transform="matrix(0.13333333,0,0,-0.13333333,0,200)" />
      <path
         id="path108"
         d="m 1312.82,1195.11 c 0,-50.17 -40.67,-90.85 -90.85,-90.85 -50.17,0 -90.85,40.68 -90.85,90.85 0,50.18 40.68,90.85 90.85,90.85 50.18,0 90.85,-40.67 90.85,-90.85"
         style="fill:#0f172a;fill-opacity:1;fill-rule:nonzero;stroke:none"
         transform="matrix(0.13333333,0,0,-0.13333333,0,200)" />
      <path
         id="path109"
         d="m 1221.97,1283.98 c -49.01,0 -88.87,-39.86 -88.87,-88.87 0,-49 39.86,-88.87 88.87,-88.87 49.01,0 88.87,39.87 88.87,88.87 0,49.01 -39.86,88.87 -88.87,88.87 z m 0,-181.7 c -51.19,0 -92.83,41.65 -92.83,92.83 0,51.19 41.64,92.83 92.83,92.83 51.19,0 92.83,-41.64 92.83,-92.83 0,-51.18 -41.64,-92.83 -92.83,-92.83"
         style="fill:#94a3b8;fill-opacity:1;fill-rule:nonzero;stroke:none"
         transform="matrix(0.13333333,0,0,-0.13333333,0,200)" />
      <path
         id="path110"
         d="m 1260.34,1214.47 c 0,23.71 -21.51,42.4 -46.08,37.62 -15.27,-2.97 -27.43,-15.48 -30.07,-30.81 -2.03,-11.79 1.34,-22.78 8.02,-30.98 5.78,-7.08 9.41,-15.67 9.41,-24.81 v -0.09 h 40.7 v 0.09 c 0,9.12 3.58,17.7 9.36,24.75 5.41,6.6 8.66,15.03 8.66,24.23"
         style="fill:#0f172a;fill-opacity:1;fill-rule:nonzero;stroke:none"
         transform="matrix(0.13333333,0,0,-0.13333333,0,200)" />
      <path
         id="path111"
         d="m 1203.55,1167.38 h 36.84 c 0.45,8.57 3.8,16.84 9.76,24.12 5.29,6.45 8.21,14.61 8.21,22.98 0,10.9 -4.83,21.15 -13.26,28.09 -8.43,6.94 -19.54,9.7 -30.46,7.57 -14.52,-2.82 -25.98,-14.55 -28.5,-29.2 -1.84,-10.69 0.86,-21.12 7.6,-29.38 6,-7.36 9.37,-15.68 9.81,-24.18 z m 38.77,-3.95 h -42.67 v 1.97 c 0,8.31 -3.11,16.46 -8.97,23.65 -7.48,9.17 -10.47,20.73 -8.44,32.56 2.8,16.26 15.52,29.28 31.65,32.42 12.08,2.36 24.39,-0.72 33.73,-8.41 9.34,-7.7 14.69,-19.05 14.69,-31.14 0,-9.28 -3.23,-18.33 -9.1,-25.49 -5.83,-7.12 -8.91,-15.25 -8.91,-23.5 v -1.98 l -1.98,-0.08"
         style="fill:#94a3b8;fill-opacity:1;fill-rule:nonzero;stroke:none"
         transform="matrix(0.13333333,0,0,-0.13333333,0,200)" />
      <path
         id="path112"
         d="m 1242.32,1165.4 h -40.7 v -7.67 c 0,-11.24 9.11,-20.35 20.35,-20.35 v 0 c 11.24,0 20.35,9.11 20.35,20.35 v 7.67"
         style="fill:#0f172a;fill-opacity:1;fill-rule:nonzero;stroke:none"
         transform="matrix(0.13333333,0,0,-0.13333333,0,200)" />
      <path
         id="path113"
         d="m 1203.6,1163.43 v -5.7 c 0,-10.12 8.24,-18.37 18.37,-18.37 10.13,0 18.37,8.25 18.37,18.37 v 5.7 z m 18.37,-28.02 c -12.31,0 -22.32,10.01 -22.32,22.32 v 9.65 h 44.65 v -9.65 c 0,-12.31 -10.02,-22.32 -22.33,-22.32"
         style="fill:#94a3b8;fill-opacity:1;fill-rule:nonzero;stroke:none"
         transform="matrix(0.13333333,0,0,-0.13333333,0,200)" />
      <path
         id="path114"
         d="m 1244.91,1218.05 c -0.76,0 -2.48,-0.4 -5.47,-2.35 -6.23,-4.07 -8.54,-11.68 -9.38,-17.06 3.44,0.47 7.24,1.68 10.77,4.77 3.57,3.12 5.33,8.6 5.18,12.17 -0.06,1.61 -0.49,2.26 -0.64,2.38 -0.06,0.04 -0.21,0.09 -0.46,0.09 z m -45.88,0 c -0.25,0 -0.4,-0.05 -0.45,-0.09 -0.16,-0.12 -0.58,-0.77 -0.65,-2.38 -0.15,-3.57 1.61,-9.05 5.18,-12.17 3.53,-3.09 7.33,-4.3 10.78,-4.77 -0.84,5.33 -3.13,12.98 -9.38,17.05 -3,1.96 -4.72,2.36 -5.48,2.36 z m 30.6,-52.65 h -3.96 v 29.03 c -0.81,0 -1.57,0.02 -2.26,0.03 l -1.44,0.03 -1.43,-0.03 c -0.7,-0.01 -1.46,-0.03 -2.27,-0.03 v -29.03 h -3.96 v 29.21 c -4.23,0.43 -9.2,1.8 -13.8,5.82 -4.76,4.16 -6.72,10.86 -6.53,15.31 0.1,2.53 0.88,4.4 2.25,5.41 2.23,1.64 5.74,0.93 10.44,-2.15 7.82,-5.09 10.4,-14.49 11.25,-20.61 0.88,-0.03 1.75,0.01 2.52,0.03 l 1.62,0.03 v -0.01 l 1.44,-0.02 c 0.78,-0.02 1.64,-0.07 2.53,-0.03 0.86,6.18 3.45,15.54 11.24,20.62 4.7,3.06 8.21,3.78 10.45,2.14 1.36,-1.01 2.14,-2.88 2.25,-5.41 0.18,-4.45 -1.78,-11.15 -6.54,-15.31 -4.6,-4.02 -9.57,-5.39 -13.8,-5.82 0,-0.01 0,-0.02 0,-0.03 v -29.18"
         style="fill:#94a3b8;fill-opacity:1;fill-rule:nonzero;stroke:none"
         transform="matrix(0.13333333,0,0,-0.13333333,0,200)" />
      <path
         id="path115"
         d="m 1529.4,903.969 c 0,-49.055 -39.77,-88.821 -88.83,-88.821 -49.05,0 -88.82,39.766 -88.82,88.821 0,49.058 39.77,88.824 88.82,88.824 49.06,0 88.83,-39.766 88.83,-88.824"
         style="fill:#0f172a;fill-opacity:1;fill-rule:nonzero;stroke:none"
         transform="matrix(0.13333333,0,0,-0.13333333,0,200)" />
      <path
         id="path116"
         d="m 1440.57,990.816 c -47.88,0 -86.84,-38.961 -86.84,-86.847 0,-47.887 38.96,-86.844 86.84,-86.844 47.89,0 86.85,38.957 86.85,86.844 0,47.886 -38.96,86.847 -86.85,86.847 z m 0,-177.644 c -50.07,0 -90.8,40.73 -90.8,90.797 0,50.074 40.73,90.804 90.8,90.804 50.07,0 90.81,-40.73 90.81,-90.804 0,-50.067 -40.74,-90.797 -90.81,-90.797"
         style="fill:#94a3b8;fill-opacity:1;fill-rule:nonzero;stroke:none"
         transform="matrix(0.13333333,0,0,-0.13333333,0,200)" />
      <path
         id="path117"
         d="m 1480.03,853.176 h -78.91 v 101.586 h 78.91 V 853.176"
         style="fill:#0f172a;fill-opacity:1;fill-rule:nonzero;stroke:none"
         transform="matrix(0.13333333,0,0,-0.13333333,0,200)" />
      <path
         id="path118"
         d="m 1403.09,855.152 h 74.97 v 97.629 h -74.97 z m 78.92,-3.957 h -82.87 v 105.543 h 82.87 V 851.195"
         style="fill:#94a3b8;fill-opacity:1;fill-rule:nonzero;stroke:none"
         transform="matrix(0.13333333,0,0,-0.13333333,0,200)" />
      <path
         id="path119"
         d="m 1441.88,907.816 c -10.59,0 -19.21,-8.625 -19.21,-19.218 0,-10.598 8.62,-19.219 19.21,-19.219 10.6,0 19.23,8.621 19.23,19.219 0,10.593 -8.63,19.218 -19.23,19.218 z m 0,-42.394 c -12.78,0 -23.17,10.394 -23.17,23.176 0,12.781 10.39,23.175 23.17,23.175 12.79,0 23.18,-10.394 23.18,-23.175 0,-12.782 -10.39,-23.176 -23.18,-23.176"
         style="fill:#94a3b8;fill-opacity:1;fill-rule:nonzero;stroke:none"
         transform="matrix(0.13333333,0,0,-0.13333333,0,200)" />
      <path
         id="path120"
         d="m 1441.88,897.426 c -4.86,0 -8.82,-3.961 -8.82,-8.828 0,-4.871 3.96,-8.832 8.82,-8.832 4.88,0 8.84,3.961 8.84,8.832 0,4.867 -3.96,8.828 -8.84,8.828 z m 0,-21.613 c -7.04,0 -12.78,5.73 -12.78,12.785 0,7.05 5.74,12.785 12.78,12.785 7.06,0 12.79,-5.735 12.79,-12.785 0,-7.055 -5.73,-12.785 -12.79,-12.785"
         style="fill:#94a3b8;fill-opacity:1;fill-rule:nonzero;stroke:none"
         transform="matrix(0.13333333,0,0,-0.13333333,0,200)" />
      <path
         id="path121"
         d="m 1426.6,926.219 h -3.95 v 21.41 h 3.95 v -21.41"
         style="fill:#94a3b8;fill-opacity:1;fill-rule:nonzero;stroke:none"
         transform="matrix(0.13333333,0,0,-0.13333333,0,200)" />
      <path
         id="path122"
         d="m 1475,924.238 h -68.85 v 3.957 H 1475 v -3.957"
         style="fill:#94a3b8;fill-opacity:1;fill-rule:nonzero;stroke:none"
         transform="matrix(0.13333333,0,0,-0.13333333,0,200)" />
      <path
         id="path123"
         d="m 1468.49,933.145 h -7.77 v 11.125 h 7.77 v -11.125"
         style="fill:#1e293b;fill-opacity:1;fill-rule:nonzero;stroke:none"
         transform="matrix(0.13333333,0,0,-0.13333333,0,200)" />
      <path
         id="path124"
         d="m 1447.92,933.145 h 6.4 v 11.125 h -6.4 v -11.125"
         style="fill:#1e293b;fill-opacity:1;fill-rule:nonzero;stroke:none"
         transform="matrix(0.13333333,0,0,-0.13333333,0,200)" />
      <path
         id="path125"
         d="m 155.156,531.93 c 0,-51.239 41.539,-92.789 92.785,-92.789 51.243,0 92.782,41.55 92.782,92.789 0,51.242 -41.539,92.785 -92.782,92.785 -51.246,0 -92.785,-41.543 -92.785,-92.785"
         style="fill:#0f172a;fill-opacity:1;fill-rule:nonzero;stroke:none"
         transform="matrix(0.13333333,0,0,-0.13333333,0,200)" />
      <path
         id="path126"
         d="m 247.938,622.738 c -50.067,0 -90.801,-40.738 -90.801,-90.808 0,-50.078 40.734,-90.809 90.801,-90.809 50.074,0 90.808,40.731 90.808,90.809 0,50.07 -40.734,90.808 -90.808,90.808 z m 0,-185.566 c -52.25,0 -94.758,42.508 -94.758,94.758 0,52.254 42.508,94.761 94.758,94.761 52.253,0 94.765,-42.507 94.765,-94.761 0,-52.25 -42.512,-94.758 -94.765,-94.758"
         style="fill:#94a3b8;fill-opacity:1;fill-rule:nonzero;stroke:none"
         transform="matrix(0.13333333,0,0,-0.13333333,0,200)" />
      <path
         id="path127"
         d="m 253.461,572.004 h -3.957 v 13.469 h 3.957 v -13.469"
         style="fill:#94a3b8;fill-opacity:1;fill-rule:nonzero;stroke:none"
         transform="matrix(0.13333333,0,0,-0.13333333,0,200)" />
      <path
         id="path128"
         d="m 272.273,530.156 h 19.872 v 23.688 c 0,10.027 -8.133,18.16 -18.165,18.16 h -59.019 v -19.871 h 55.875 c 0.793,0 1.437,-0.645 1.437,-1.438 v -20.539"
         style="fill:#0f172a;fill-opacity:1;fill-rule:nonzero;stroke:none"
         transform="matrix(0.13333333,0,0,-0.13333333,0,200)" />
      <path
         id="path129"
         d="m 274.254,532.133 h 15.91 v 21.711 c 0,8.926 -7.262,16.183 -16.184,16.183 h -57.039 v -15.914 h 53.895 c 1.883,0 3.418,-1.535 3.418,-3.418 z m 19.867,-3.957 h -23.824 v 21.98 h -57.313 v 23.828 h 60.996 c 11.106,0 20.141,-9.035 20.141,-20.14 v -25.668"
         style="fill:#94a3b8;fill-opacity:1;fill-rule:nonzero;stroke:none"
         transform="matrix(0.13333333,0,0,-0.13333333,0,200)" />
      <path
         id="path130"
         d="m 265.648,518.887 h 34.633 v 11.269 h -34.633 v -11.269"
         style="fill:#0f172a;fill-opacity:1;fill-rule:nonzero;stroke:none"
         transform="matrix(0.13333333,0,0,-0.13333333,0,200)" />
      <path
         id="path131"
         d="m 267.629,520.863 h 30.672 v 7.313 h -30.672 z m 34.629,-3.957 h -38.586 v 15.227 h 38.586 v -15.227"
         style="fill:#94a3b8;fill-opacity:1;fill-rule:nonzero;stroke:none"
         transform="matrix(0.13333333,0,0,-0.13333333,0,200)" />
      <path
         id="path132"
         d="m 231.02,581.098 h 40.925 v 7.207 H 231.02 v -7.207"
         style="fill:#0f172a;fill-opacity:1;fill-rule:nonzero;stroke:none"
         transform="matrix(0.13333333,0,0,-0.13333333,0,200)" />
      <path
         id="path133"
         d="m 232.996,583.074 h 36.973 v 3.25 h -36.973 z m 40.926,-3.953 h -44.883 v 11.16 h 44.883 v -11.16"
         style="fill:#94a3b8;fill-opacity:1;fill-rule:nonzero;stroke:none"
         transform="matrix(0.13333333,0,0,-0.13333333,0,200)" />
      <path
         id="path134"
         d="m 195.598,536.352 h 19.363 v 50.074 h -19.363 v -50.074"
         style="fill:#0f172a;fill-opacity:1;fill-rule:nonzero;stroke:none"
         transform="matrix(0.13333333,0,0,-0.13333333,0,200)" />
      <path
         id="path135"
         d="m 197.574,538.332 h 15.41 v 46.113 h -15.41 z m 19.367,-3.957 h -23.32 v 54.027 h 23.32 v -54.027"
         style="fill:#94a3b8;fill-opacity:1;fill-rule:nonzero;stroke:none"
         transform="matrix(0.13333333,0,0,-0.13333333,0,200)" />
      <path
         id="path136"
         d="m 269.18,484.379 c 0.097,0.601 0.246,1.18 0.418,1.75 v 0 c 2.007,8.09 7.879,15.738 13.367,24.203 5.488,-8.465 11.359,-16.113 13.367,-24.203 v 0 c 0.172,-0.57 0.324,-1.149 0.418,-1.758 0.137,-0.723 0.227,-1.449 0.227,-2.223 0,-7.726 -6.274,-14.007 -14.012,-14.007 -7.738,0 -14.012,6.281 -14.012,14.007 0,0.774 0.094,1.5 0.227,2.231"
         style="fill:#00d4ff;fill-opacity:1;fill-rule:nonzero;stroke:none"
         transform="matrix(0.13333333,0,0,-0.13333333,0,200)" />
      <path
         id="path137"
         d="m 627.918,932.449 c 0,-56.984 -46.199,-103.183 -103.188,-103.183 -56.988,0 -103.183,46.199 -103.183,103.183 0,56.989 46.195,103.191 103.183,103.191 56.989,0 103.188,-46.202 103.188,-103.191"
         style="fill:#0f172a;fill-opacity:1;fill-rule:nonzero;stroke:none"
         transform="matrix(0.13333333,0,0,-0.13333333,0,200)" />
      <path
         id="path138"
         d="m 524.734,1033.66 c -55.804,0 -101.211,-45.402 -101.211,-101.211 0,-55.804 45.407,-101.207 101.211,-101.207 55.805,0 101.204,45.403 101.204,101.207 0,55.809 -45.399,101.211 -101.204,101.211 z m 0,-206.375 c -57.988,0 -105.164,47.176 -105.164,105.164 0,57.985 47.176,105.161 105.164,105.161 57.985,0 105.161,-47.176 105.161,-105.161 0,-57.988 -47.176,-105.164 -105.161,-105.164"
         style="fill:#94a3b8;fill-opacity:1;fill-rule:nonzero;stroke:none"
         transform="matrix(0.13333333,0,0,-0.13333333,0,200)" />
      <path
         id="path139"
         d="m 589.133,917.34 h -130.34 v 29.008 c 0,17.711 14.355,32.07 32.066,32.07 h 66.207 c 17.711,0 32.067,-14.359 32.067,-32.07 V 917.34"
         style="fill:#0f172a;fill-opacity:1;fill-rule:nonzero;stroke:none"
         transform="matrix(0.13333333,0,0,-0.13333333,0,200)" />
      <path
         id="path140"
         d="m 460.77,919.316 h 126.386 v 47.454 c 0,5.332 -4.34,9.668 -9.672,9.668 H 470.441 c -5.336,0 -9.671,-4.336 -9.671,-9.668 z m 130.343,-3.957 H 456.816 v 51.411 c 0,7.511 6.114,13.625 13.625,13.625 h 107.043 c 7.516,0 13.629,-6.114 13.629,-13.625 v -51.411"
         style="fill:#94a3b8;fill-opacity:1;fill-rule:nonzero;stroke:none"
         transform="matrix(0.13333333,0,0,-0.13333333,0,200)" />
      <path
         id="path141"
         d="m 568.98,954.176 h -90.031 v 24.242 h 90.031 v -24.242"
         style="fill:#0f172a;fill-opacity:1;fill-rule:nonzero;stroke:none"
         transform="matrix(0.13333333,0,0,-0.13333333,0,200)" />
      <path
         id="path142"
         d="M 480.93,956.152 H 567 v 20.286 h -86.07 z m 90.027,-3.957 h -93.984 v 28.2 h 93.984 v -28.2"
         style="fill:#94a3b8;fill-opacity:1;fill-rule:nonzero;stroke:none"
         transform="matrix(0.13333333,0,0,-0.13333333,0,200)" />
      <path
         id="path143"
         d="m 501.648,868.629 -2.464,3.09 c 2.429,1.886 3.742,4.293 3.738,6.812 -0.004,2.52 -1.324,4.922 -3.719,6.77 l -0.988,0.762 c -3.426,2.632 -5.309,6.187 -5.309,9.992 0,3.812 1.883,7.367 5.305,10 l 2.598,2.004 2.421,-3.133 -2.601,-2.004 c -2.43,-1.867 -3.766,-4.305 -3.766,-6.867 0,-2.555 1.336,-4.992 3.766,-6.86 l 0.988,-0.761 c 3.387,-2.61 5.254,-6.121 5.262,-9.899 0.004,-3.769 -1.852,-7.289 -5.231,-9.906"
         style="fill:#94a3b8;fill-opacity:1;fill-rule:nonzero;stroke:none"
         transform="matrix(0.13333333,0,0,-0.13333333,0,200)" />
      <path
         id="path144"
         d="m 524.953,868.629 -2.465,3.09 c 2.43,1.886 3.742,4.293 3.735,6.812 0,2.52 -1.325,4.922 -3.715,6.77 l -0.992,0.762 c -3.418,2.632 -5.301,6.187 -5.301,9.992 0,3.812 1.883,7.367 5.301,10 l 2.601,2.004 2.418,-3.133 -2.601,-2.004 c -2.43,-1.867 -3.766,-4.305 -3.766,-6.867 0,-2.555 1.336,-4.992 3.766,-6.86 l 0.988,-0.761 c 3.387,-2.61 5.254,-6.121 5.258,-9.899 0.008,-3.769 -1.848,-7.289 -5.227,-9.906"
         style="fill:#94a3b8;fill-opacity:1;fill-rule:nonzero;stroke:none"
         transform="matrix(0.13333333,0,0,-0.13333333,0,200)" />
      <path
         id="path145"
         d="m 548.258,868.629 -2.469,3.09 c 2.434,1.886 3.742,4.293 3.738,6.812 -0.004,2.52 -1.32,4.922 -3.718,6.77 l -0.989,0.762 c -3.422,2.632 -5.304,6.187 -5.304,9.992 0,3.812 1.882,7.367 5.304,10 l 2.602,2.004 2.418,-3.133 -2.602,-2.004 c -2.429,-1.867 -3.765,-4.305 -3.765,-6.867 0,-2.555 1.336,-4.992 3.765,-6.86 l 0.989,-0.761 c 3.382,-2.61 5.25,-6.121 5.257,-9.899 0.008,-3.769 -1.851,-7.289 -5.226,-9.906"
         style="fill:#94a3b8;fill-opacity:1;fill-rule:nonzero;stroke:none"
         transform="matrix(0.13333333,0,0,-0.13333333,0,200)" />
      <path
         id="path146"
         d="m 568.98,964.316 h -90.031 v 3.957 h 90.031 v -3.957"
         style="fill:#94a3b8;fill-opacity:1;fill-rule:nonzero;stroke:none"
         transform="matrix(0.13333333,0,0,-0.13333333,0,200)" />
      <path
         id="path147"
         d="M 576.855,926.379 H 471.074 v 3.957 h 105.781 v -3.957"
         style="fill:#94a3b8;fill-opacity:1;fill-rule:nonzero;stroke:none"
         transform="matrix(0.13333333,0,0,-0.13333333,0,200)" />
      <path
         id="path148"
         d="m 3182.06,120.129 c 4.85,17.672 7.49,36.242 7.49,55.449 0,115.563 -93.68,209.231 -209.23,209.231 -40.12,0 -77.59,-11.309 -109.43,-30.887 -6.93,128.898 -113.63,231.289 -244.25,231.289 -133.26,0 -241.55,-106.563 -244.49,-239.109 -25.91,13.078 -55.16,20.5 -86.17,20.5 -105.73,0 -191.44,-85.711 -191.44,-191.442 0,-19.148 2.94,-37.59 8.18,-55.031 h 1069.34"
         style="fill:#1e293b;fill-opacity:1;fill-rule:nonzero;stroke:none"
         transform="matrix(0.13333333,0,0,-0.13333333,0,200)" />
      <path
         id="path149"
         d="m 2115.17,123.398 h 1064.39 c 4.46,17.071 6.72,34.614 6.72,52.18 0,113.57 -92.39,205.961 -205.96,205.961 -38.12,0 -75.37,-10.508 -107.72,-30.41 l -4.68,-2.879 -0.3,5.488 c -6.87,127.961 -112.73,228.203 -240.99,228.203 -130.12,0 -238.33,-105.832 -241.21,-235.91 l -0.12,-5.191 -4.63,2.34 c -26.47,13.371 -54.96,20.148 -84.69,20.148 -103.76,0 -188.17,-84.406 -188.17,-188.168 0,-17.351 2.47,-34.75 7.36,-51.762 z m 1069.39,-6.539 H 2110.29 l -0.7,2.332 c -5.52,18.36 -8.32,37.188 -8.32,55.969 0,107.371 87.35,194.711 194.71,194.711 29.06,0 56.97,-6.262 83.06,-18.609 5.63,131.269 115.64,237.218 247.59,237.218 129.94,0 237.48,-100.16 247.18,-229.011 32.28,18.73 68.99,28.609 106.51,28.609 117.17,0 212.5,-95.328 212.5,-212.5 0,-18.976 -2.56,-37.93 -7.6,-56.308 l -0.66,-2.411"
         style="fill:#1e293b;fill-opacity:1;fill-rule:nonzero;stroke:none"
         transform="matrix(0.13333333,0,0,-0.13333333,0,200)" />
      <path
         id="path150"
         d="M 3188.94,1350.69 H 2105.15 v 28.57 h 1083.79 v -28.57"
         style="fill:#0f172a;fill-opacity:1;fill-rule:nonzero;stroke:none"
         transform="matrix(0.13333333,0,0,-0.13333333,0,200)" />
      <path
         id="path151"
         d="m 2109.03,1354.56 h 1076.03 v 20.82 H 2109.03 Z m 1083.79,-7.76 H 2101.27 v 36.34 h 1091.55 v -36.34"
         style="fill:#94a3b8;fill-opacity:1;fill-rule:nonzero;stroke:none"
         transform="matrix(0.13333333,0,0,-0.13333333,0,200)" />
      <path
         id="path152"
         d="m 2660.01,1350.68 h -7.76 v 28.58 h 7.76 v -28.58"
         style="fill:#94a3b8;fill-opacity:1;fill-rule:nonzero;stroke:none"
         transform="matrix(0.13333333,0,0,-0.13333333,0,200)" />
      <path
         id="path153"
         d="m 2534.72,681.969 h -231.79 v 15.515 h 216.27 v 656.606 h 15.52 V 681.969"
         style="fill:#94a3b8;fill-opacity:1;fill-rule:nonzero;stroke:none"
         transform="matrix(0.13333333,0,0,-0.13333333,0,200)" />
      <path
         id="path154"
         d="m 3076.06,681.969 h -231.79 v 15.515 h 216.28 v 656.606 h 15.51 V 681.969"
         style="fill:#94a3b8;fill-opacity:1;fill-rule:nonzero;stroke:none"
         transform="matrix(0.13333333,0,0,-0.13333333,0,200)" />
      <path
         id="path155"
         d="M 3068.3,1217.48 H 2526.96 V 1233 h 541.34 v -15.52"
         style="fill:#94a3b8;fill-opacity:1;fill-rule:nonzero;stroke:none"
         transform="matrix(0.13333333,0,0,-0.13333333,0,200)" />
    </g>
  </g>
</svg>
