<svg xmlns="http://www.w3.org/2000/svg" viewBox="0 0 487.5 200" fill="none">
  <defs>
    <style>
      .st0, .st1, .st2 {
        fill: #0f172a;
      }

      .st0, .st1, .st3 {
        stroke: #94a3b8;
        stroke-miterlimit: 10;
      }

      .st0, .st3 {
        stroke-width: .5px;
      }

      .st1 {
        stroke-width: .2px;
      }

      .st4 {
        fill: #1e293b;
      }

      .st5 {
        fill: #94a3b8;
      }

      .st6 {
        fill: #040404;
      }

      .st3 {
        fill: none;
      }
    </style>
  </defs>
  <g>
    <path id="path2" class="st4" d="M73.9,95.2c1-1.5,1.5-3.3,1.5-5.3,0-5.5-4.5-10-10-10s-3.1.4-4.5,1.1c-1.7-5.6-6.9-9.6-13-9.6s-13.6,6.1-13.6,13.6,0,.3,0,.5c-1.4-1.1-3.1-1.7-5-1.7-4.6,0-8.3,3.7-8.3,8.3s.2,2.2.6,3.2h52.2"/>
    <path id="path3" class="st4" d="M235.2,78.8c0-.5.1-1,.1-1.5,0-5.7-4.6-10.4-10.4-10.4s-2.4.2-3.5.6c-.7-7.7-7.2-13.6-15-13.6s-11.2,3.5-13.6,8.5c-1.3-.4-2.7-.7-4.2-.7-7.6,0-13.7,6.1-13.7,13.7s.2,2.2.4,3.3h59.8"/>
    <path id="path4" class="st2" d="M82.3,173.3h0v-.8c0-4.8-3.9-8.7-8.7-8.7s-.9,0-1.3.1c-.4-3.3-3.1-5.8-6.5-5.8s-6.5,2.9-6.5,6.5,0,1.4.3,2.1c-1-.4-2.2-.7-3.4-.7-4.8,0-8.7,3.9-8.7,8.7s0,1.3.2,1.9h0c-1.1-.7-2.4-1.1-3.7-1.1-4,0-7.2,3.2-7.2,7.2s0,.9,0,1.4h46c2.7-.3,4.7-2.6,4.7-5.4s-2.4-5.4-5.4-5.4"/>
    <path id="path5" class="st5" d="M62.6,184.4h-25.8v-.2c-.2-1-.4-2.9.6-5,1.6-3.1,4.9-3.8,5.2-3.9,2.4-.4,4.2.4,5.2.9l-.3.5c-.7-.4-2.5-1.3-4.8-.9-.3,0-3.4.7-4.9,3.6-.9,1.7-.8,3.4-.7,4.4h25.4v.5"/>
    <path id="path6" class="st5" d="M82.6,173.3h-.5v-1.6c0-.4-.6-4.4-4.2-6.5-2.2-1.3-4.4-1.2-5.5-1v-.5c1.1-.2,3.5-.2,5.8,1.1,3.7,2.1,4.3,6.1,4.4,6.9v1.7"/>
    <path id="path7" class="st5" d="M62.6,184.4v-.5h19.7c.6,0,2.5-.2,3.9-1.8,1.1-1.3,1.3-2.8,1.3-3.4,0-1.5-.6-2.6-1-3.1-.3-.4-1.3-1.5-2.9-1.9-.6-.2-1.9-.3-3.2.2-1.4.6-2.2,1.6-2.5,2.2l-.5-.3c.4-.6,1.2-1.8,2.8-2.5,1.5-.6,2.9-.4,3.5-.3,1.8.4,2.8,1.6,3.2,2.1.4.6,1.1,1.8,1.1,3.4s0,2.3-1.4,3.7c-1.6,1.8-3.7,2-4.3,2h-19.7"/>
    <path id="path8" class="st5" d="M59.4,166.7c-.3-.9-.4-1.7-.3-2.6.2-2.1,1.3-3.6,1.8-4.1s2.2-2.2,5-2.2h0c2.1,0,3.6,1,4.3,1.5l-.3.4c-.7-.5-2-1.4-3.9-1.4h0c-2.6,0-4.2,1.6-4.6,2-.4.5-1.5,1.8-1.6,3.8,0,.8,0,1.6.3,2.4l-.5.2"/>
    <path id="path9" class="st5" d="M47.3,174.6c0-1.2.2-2.3.6-3.3,1.3-3.1,4.3-5.3,7.6-5.6,3.4-.3,5.8,1.5,6.7,2.3l-.3.4c-.8-.7-3.1-2.4-6.3-2.1-3.1.3-5.9,2.4-7.1,5.3-.4,1-.6,2-.6,3.1h-.5"/>
    <path id="path10" class="st5" d="M62.9,184.2h-.5c0-.5.2-2.9-1.6-4.7-1.3-1.3-2.9-1.5-3.5-1.6-.8,0-1.6,0-2.4.4l-.2-.5c.8-.3,1.8-.5,2.6-.4.7,0,2.4.3,3.9,1.7,2,2,1.8,4.6,1.7,5.1"/>
    <path id="path11" class="st5" d="M47.1,179c0-1,0-2,.5-2.9,1.2-2.3,4.1-3.6,6.6-2.9,2,.6,3.6,2.3,4,4.5h-.5c-.4-1.9-1.8-3.4-3.7-4-2.6-.7-5.1.7-6,2.6-.4.8-.5,1.6-.5,2.6h-.5"/>
    <path id="path13" class="st2" d="M156,100.9h-6v-19.5h6v19.5"/>
    <path id="path14" class="st5" d="M150.3,100.7h5.5v-19h-5.5v19ZM156.3,101.2h-6.6v-20h6.6v20"/>
    <path id="path15" class="st2" d="M147.7,78.3h10.7v3.1h-10.7v-3.1"/>
    <path id="path16" class="st5" d="M148,81.2h10.1v-2.6h-10.1v2.6ZM158.6,81.7h-11.2v-3.7h11.2v3.7"/>
    <path id="path17" class="st2" d="M119.3,65.9c-16.2,16.2-32.5,32.5-48.7,48.7v69.5h97.4v-69.5l-48.7-48.7"/>
    <path id="path18" class="st5" d="M70.8,183.9h96.9v-69.1l-48.4-48.4-48.4,48.4v69.1h-.1ZM168.2,184.4h-97.9v-69.9h0l48.9-49,.2.2,48.8,48.8v69.9"/>
    <path id="path19" class="st2" d="M225.2,184.2h-57.3v-41.6h57.3v41.6"/>
    <path id="path20" class="st5" d="M168.2,183.9h56.7v-41h-56.7v41ZM225.5,184.4h-57.8v-42.1h57.8v42.1"/>
    <path id="path21" class="st2" d="M236.7,144.4l-23-23h-45.8v23h68.8"/>
    <path id="path22" class="st5" d="M168.2,144.2h67.9l-22.5-22.5h-45.4v22.5h0ZM237.4,144.7h-69.7v-23.5h46.2l23.5,23.5"/>
    <path id="path23" class="st5" d="M225.2,179.7H70.6v-.5h154.6v.5"/>
    <path id="path24" class="st2" d="M172.6,119.6l2.3-2.3-55.7-55.7-21.2,21.2h0l-34.5,34.5,2.3,2.3,32.1-32.1,32.1,32.1,2.3-2.3-32.1-32.1,18.9-18.9,53.3,53.3"/>
    <path id="path25" class="st5" d="M125.8,184.2h-.5v-69.1l-27.2-27.2-27.3,27.3-.4-.4,27.7-27.7,27.8,27.8v69.3"/>
    <path id="path26" class="st5" d="M130.2,120l-2.9-2.9.4-.4,2.6,2.6,2-2-32.1-32.1,19.2-19.2.2.2,48.7,48.7-.4.4-48.5-48.5-18.5,18.5,32.1,32.1-2.7,2.7"/>
    <path id="path27" class="st5" d="M172.6,120l-2.7-2.7.4-.4,2.4,2.4,2-2-55.3-55.3-55.3,55.3,2,2,3.1-3.1.4.4-3.5,3.5-2.7-2.7.2-.2,55.8-55.8.2.2,55.8,55.8-2.7,2.7"/>
    <path id="path37" class="st2" d="M125.6,142.6h-55c-2.9,2.9-5.7,5.7-8.6,8.6v3h72.3v-3c-2.9-2.9-5.7-5.7-8.6-8.6"/>
    <path id="path38" class="st5" d="M62.2,154h71.7v-2.6l-8.5-8.5h-54.8l-8.5,8.5v2.6h.1ZM134.5,154.5H61.7v-3.4l8.8-8.8h55.3l8.7,8.8v3.4"/>
    <path id="path39" class="st5" d="M89.5,151.5h-27.5v-.5h27.5v.5"/>
    <path id="path40" class="st5" d="M134.2,151.5h-27.5v-.5h27.5v.5"/>
    <path id="path41" class="st5" d="M134,154.5H61.7v-.5h72.3v.5"/>
    <path id="path42" class="st2" d="M86.4,184.2h2.5v-29.9h-2.5v29.9"/>
    <path id="path43" class="st5" d="M86.7,183.9h2v-29.4h-2v29.4ZM89.2,184.4h-3v-30.4h3v30.4"/>
    <path id="path44" class="st2" d="M107.2,184.2h2.5v-29.9h-2.5v29.9"/>
    <path id="path45" class="st5" d="M107.5,183.9h2v-29.4h-2v29.4ZM110,184.4h-3v-30.4h3v30.4"/>
    <path id="path46" class="st5" d="M109.5,154.4l-11.5-11.5-11.5,11.5-.4-.4,11.8-11.8,11.8,11.8-.4.4"/>
    <path id="path47" class="st2" d="M91.6,160.7v23.4h12.9v-23.4h-12.9"/>
    <path id="path48" class="st5" d="M91.9,183.9h12.4v-22.9h-12.4v22.9ZM104.8,184.4h-13.5v-24h13.5v24"/>
    <path id="path49" class="st5" d="M104.5,161h-12.9v-.5h12.9v.5"/>
    <path id="path50" class="st5" d="M104.5,168.8h-12.9v-.5h12.9v.5"/>
    <path id="path51" class="st5" d="M104.5,176.6h-12.9v-.5h12.9v.5"/>
    <path id="path52" class="st5" d="M104.5,184.4h-12.9v-.5h12.9v.5"/>
    <path id="path53" class="st5" d="M98.3,184.2h-.5v-23.4h.5v23.4"/>
    <path id="path59" class="st2" d="M214.6,184.2h-36v-26.1h36v26.1"/>
    <path id="path60" class="st5" d="M178.9,183.9h35.4v-25.6h-35.4v25.6ZM214.8,184.4h-36.5v-26.6h36.5v26.6"/>
    <path id="path61" class="st5" d="M214.6,158.3h-36v-.5h36v.5"/>
    <path id="path62" class="st5" d="M214.6,164.8h-36v-.5h36v.5"/>
    <path id="path63" class="st5" d="M214.6,171.4h-36v-.5h36v.5"/>
    <path id="path64" class="st5" d="M214.6,177.9h-36v-.5h36v.5"/>
    <path id="path65" class="st5" d="M214.6,184.4h-36v-.5h36v.5"/>
    <path id="path73" class="st5" d="M240.1,177.8l-.4-.4,5.8-5.8.4.4-5.8,5.8"/>
    <path id="path74" class="st2" d="M248.3,160.1c0,4.7-3.8,8.6-8.5,8.6s-8.5-3.9-8.5-8.6,3.8-8.6,8.5-8.6,8.5,3.9,8.5,8.6"/>
    <path id="path741" data-name="path74" class="st2" transform="translate(8 -3)" d="M281.8,167.8c0,3.3-2.7,5.9-5.9,5.9s-5.9-2.7-5.9-5.9,2.7-5.9,5.9-5.9,5.9,2.7,5.9,5.9"/>
    <path id="path77" class="st5" d="M228.5,165.3c-2.2,0-4,1.8-4,4s1.8,4,4,4,4-1.8,4-4-1.8-4-4-4ZM228.5,173.9c-2.5,0-4.6-2-4.6-4.6s2-4.6,4.6-4.6,4.6,2,4.6,4.6-2,4.6-4.6,4.6"/>
    <path id="path78" class="st2" d="M251.7,169.3c0,3.3-2.7,5.9-5.9,5.9s-5.9-2.7-5.9-5.9,2.7-5.9,5.9-5.9,5.9,2.7,5.9,5.9"/>
    <path id="path79" class="st5" d="M245.8,163.6c-3.1,0-5.7,2.5-5.7,5.7s2.5,5.7,5.7,5.7,5.7-2.5,5.7-5.7-2.5-5.7-5.7-5.7ZM245.8,175.5c-3.4,0-6.2-2.8-6.2-6.2s2.8-6.2,6.2-6.2,6.2,2.8,6.2,6.2-2.8,6.2-6.2,6.2"/>
    <path id="path81" class="st5" d="M218.2,183.9h14.7c.3-.6,1.3-3.2-.2-5.6-1.5-2.5-4.2-2.7-4.5-2.7s-2.8-.1-4.6,1.8c-1.1,1.2-1.4,2.6-1.5,3.4h-.5c0-.7.3-1.7.9-2.7-.6,0-1.7-.2-2.8.5-1.6.9-1.8,2.6-1.9,2.9-.1,1.1.2,2,.5,2.5h0ZM233.2,184.4h-15.4c-.3-.6-.8-1.7-.6-3.1,0-.4.4-2.2,2.1-3.3,1.4-.8,2.8-.6,3.4-.5.1-.2.3-.3.4-.5,1.9-2.1,4.5-2,5-2s3.3.3,5,3c1.8,3,.3,6.1.2,6.3h0"/>
    <g>
      <path id="path71" class="st5" d="M240.1,184.2h-.5v-24h.5v24"/>
      <path id="path72" class="st5" d="M239.6,180.8l-11.3-11.3.4-.4,11.3,11.3-.4.4"/>
      <path id="path75" class="st5" d="M239.8,151.5c-4.8,0-8.6,3.9-8.6,8.6s3.9,8.6,8.6,8.6,8.6-3.9,8.6-8.6-3.9-8.6-8.6-8.6ZM239.8,169.3c-5,0-9.1-4.1-9.1-9.1s4.1-9.1,9.1-9.1,9.1,4.1,9.1,9.1-4.1,9.1-9.1,9.1"/>
      <path id="path76" class="st2" d="M232.8,169.3c0,2.4-1.9,4.3-4.3,4.3s-4.3-1.9-4.3-4.3,1.9-4.3,4.3-4.3,4.3,1.9,4.3,4.3"/>
      <path id="path80" class="st2" d="M233.1,184.2c.5-.9.7-1.8.7-2.9,0-3.3-2.7-6-6-6s-3.8,1-4.9,2.5c-.4,0-.7-.2-1.1-.2-2.4,0-4.3,1.9-4.3,4.3s.2,1.6.6,2.3h15"/>
      <path id="path82" class="st2" d="M261,184.2v-.8c0-2.2-1.8-4-4-4s-2,.4-2.7,1.1c-1.1-1.7-3.1-2.9-5.3-2.9-3.5,0-6.4,2.9-6.4,6.4s0,.1,0,.2h18.3"/>
    <g transform="translate(8 -3)">
    <path id="path83" class="st5" d="M261,184.4h-18.6v-.3c0-2.6,1.5-5.1,3.8-6.2,3.3-1.6,6.4.4,6.4.4,2.1,1.4,2.7,3.4,2.9,4.3h-.5c-.2-.7-.7-2.6-2.7-3.8,0,0-2.9-1.8-5.9-.4-2.1,1-3.4,3.1-3.5,5.4h18.1v.5"/>
    <path id="path84" class="st5" d="M260.8,183c-.2-1.6-1.3-2.9-2.8-3.2-1.7-.4-3.1.6-3.3.8l-.3-.4c.3-.2,1.8-1.4,3.8-.9,1.7.4,2.9,1.9,3.2,3.7h-.5"/>
    <path id="path31" class="st4" d="M290.4,55.9c0-.5-.1-1-.1-1.5,0-5.7,4.3-10.4,9.7-10.4s2.2.2,3.3.6c.7-7.7,6.7-13.6,14.1-13.6s10.5,3.5,12.7,8.5c1.2-.4,2.6-.7,3.9-.7,7.1,0,12.8,6.1,12.8,13.7s-.1,2.2-.4,3.3h-56.1"/>
    <path class="st6" d="M-482.4,34.9c-.6-2.7,2.5-3.3,4.5-3.1h37c1.9-.2,4,.9,3.7,3.1.1,12.3,0,24.6,0,36.9.2,1.9-2,2.7-3.6,2.5h-39.2c-.5-.3-1.5-1-2-1.3-.3-12.7-.1-25.4-.2-38.1"/>
    <path class="st6" d="M-560.3,325c1.5-.8,3.2-.4,4.9-.5,9.7.1,19.3-.1,29,0,2.2-.1,3,2.3,2.8,4.1,0,16.7,0,33.4,0,50.1,0,1.7,0,3.4-.6,5-1.5,1-3.4.7-5.1.8h-28c-1.4-.1-3.6.2-3.8-1.8-.7-4,0-8,0-12.1-.3-13.7-.2-27.3-.2-41,.2-1.5-.3-3.8,1.3-4.7"/>
    <g>
      <path class="st0" d="M428.3,118.5c.5,0,.5-.7.5-1.1v-4c0-.3,0-.8-.5-.9-1.1-.2-2.1,0-3.2,0v-7.2c0-.3-.2-.8-.6-.8h-29.1v-20.5h2.4c.5,0,.4-.7.4-1.1v-4.9c0-.4-.3-.8-.8-.8h-4.4v-5.7c0-.3-.1-.8-.5-.8h-55.1c-.5,0-.7.4-.7.8v5.8h-5s-.2.2-.3.3c-.2,1.6,0,3.2,0,4.9s-.1,1.1.2,1.5c.8.3,1.7,0,2.6.2v20.5h-28.7c-.4,0-.9.2-.8.6v7.4h-3.2c-.3,0-.5.4-.5.7v4.4c0,.4,0,.9.5,1,1,0,2.1,0,3.2,0v60.3h-2.9c-.3,0-.6.4-.5.7v3.3c0,.4.3.9.8.8h126.2c.1-.2.3-.5.3-.8v-3.5c0-.4-.5-.5-.8-.5h-2.5v-60.3h3.2l-.2-.3Z"/>
      <path class="st0" d="M423.8,105.8v6.6c-2.8,0-5.6,0-8.3,0h-20.1v-6.6h28.4Z"/>
      <path class="st0" d="M395.3,118.5h28.4v60.3h-28.4v-60.3Z"/>
      <path class="st0" d="M332.7,82.5v-4.1h64.1v4.2h-64.1Z"/>
      <path class="st0" d="M334.2,105.8v6.6h-28.2v-6.6h28.2Z"/>
      <path class="st0" d="M334.2,178.8h-28.2v-60.2h28.3v60.2h0Z"/>
      <path class="st0" d="M363.8,182.2h-9.2v-18.6h9.2c0,6.2.1,12.4,0,18.6Z"/>
      <path class="st0" d="M374.5,182.2h-9.3v-18.6h9.3v18.6Z"/>
      <path class="st0" d="M380.4,182.2h-4.5v-19.2c.1-.6-.5-.8-1-.8h-20.6c-.5,0-1,.2-1,.7v19.2h-4.6v-22.6h31.6v22.6h.1Z"/>
      <path class="st0" d="M393.9,182.2h-12.2v-22.6c.8-.1,2.1.4,2.5-.5v-5.8c0-.5-.2-1.1-.7-1h-38c-.5,0-.8.3-.8.8v6.3c.6.7,1.7.2,2.6.4v22.6h-11.8v-98.3h58.5v98.3-.2Z"/>
      <path class="st0" d="M361.8,170c.4-.3,1.1,0,1,.5v4.3c0,.8-1.3.8-1.4,0v-3.7c0-.4,0-.9.3-1.1h.1Z"/>
    </g>
    <line class="st3" x1="12.1" y1="184.4" x2="476.8" y2="184.4"/>
    <path id="path32" class="st4" d="M461.3,65.6h-56.1c-.2-1.1-.4-2.1-.4-3.3,0-7.6,5.8-13.7,12.8-13.7s2.7.2,3.9.7c2.3-5,7.1-8.5,12.7-8.5s13.4,6,14.1,13.6c1-.4,2.1-.6,3.3-.6,5.4,0,9.7,4.6,9.7,10.4s0,1-.1,1.5"/>
    <rect class="st3" x="104.4" y="112.6" width="8.2" height="14.9"/>
    <rect class="st3" x="85.4" y="112.6" width="8.2" height="14.9"/>
    <g>
      <rect class="st3" x="139.2" y="112.1" width="8.2" height="14.9" transform="translate(286.6 239.2) rotate(180)"/>
      <rect class="st3" x="147.4" y="112.1" width="8.2" height="14.9"/>
    </g>
    <g>
      <rect class="st3" x="139.2" y="158.2" width="8.2" height="14.9" transform="translate(286.6 331.3) rotate(180)"/>
      <rect class="st3" x="147.4" y="158.2" width="8.2" height="14.9"/>
    </g>
    <g>
      <rect class="st3" x="312" y="124.2" width="8.2" height="14.9" transform="translate(632.1 263.3) rotate(180)"/>
      <rect class="st3" x="320.1" y="124.2" width="8.2" height="14.9"/>
    </g>
    <g>
      <rect class="st3" x="312" y="150.3" width="8.2" height="14.9" transform="translate(632.1 315.6) rotate(180)"/>
      <rect class="st3" x="320.1" y="150.3" width="8.2" height="14.9"/>
    </g>
    <g>
      <rect class="st3" x="342.9" y="93.2" width="8.2" height="14.9" transform="translate(694 201.4) rotate(180)"/>
      <rect class="st3" x="351.1" y="93.2" width="8.2" height="14.9"/>
    </g>
    <g>
      <rect class="st3" x="368.1" y="93.2" width="8.2" height="14.9" transform="translate(744.3 201.4) rotate(180)"/>
      <rect class="st3" x="376.2" y="93.2" width="8.2" height="14.9"/>
    </g>
    <g>
      <rect class="st3" x="342.9" y="117.7" width="8.2" height="14.9" transform="translate(694 250.3) rotate(180)"/>
      <rect class="st3" x="351.1" y="117.7" width="8.2" height="14.9"/>
    </g>
    <g>
      <rect class="st3" x="368.1" y="117.7" width="8.2" height="14.9" transform="translate(744.3 250.3) rotate(180)"/>
      <rect class="st3" x="376.2" y="117.7" width="8.2" height="14.9"/>
    </g>
    <g>
      <rect class="st3" x="401.4" y="124.2" width="8.2" height="14.9" transform="translate(811 263.3) rotate(180)"/>
      <rect class="st3" x="409.6" y="124.2" width="8.2" height="14.9"/>
    </g>
    <g>
      <rect class="st3" x="401.4" y="150.3" width="8.2" height="14.9" transform="translate(811 315.6) rotate(180)"/>
      <rect class="st3" x="409.6" y="150.3" width="8.2" height="14.9"/>
    </g>
    <g>
      <path id="path711" data-name="path71" class="st5" d="M275.5,184v-16.2h.3v16.2h-.3"/>
      <path id="path721" data-name="path72" class="st5" d="M275.9,181.7l-.3-.3,7.6-7.6.3.3-7.6,7.6"/>
      <path id="path751" data-name="path75" class="st5" d="M269.9,167.7c0,3.2,2.6,5.8,5.8,5.8s5.8-2.6,5.8-5.8-2.6-5.8-5.8-5.8-5.8,2.6-5.8,5.8ZM275.7,173.9c-3.4,0-6.1-2.8-6.1-6.1s2.8-6.1,6.1-6.1,6.1,2.8,6.1,6.1-2.8,6.1-6.1,6.1"/>
      <path id="path761" data-name="path76" class="st1" d="M280.4,173.9c0-1.6,1.3-2.9,2.9-2.9s2.9,1.3,2.9,2.9-1.3,2.9-2.9,2.9-2.9-1.3-2.9-2.9"/>
      <path id="path801" data-name="path80" class="st0" d="M280.2,184h10.1c.3-.5.4,0,.4-1.6s-1.3-2.9-2.9-2.9-.5.1-.7.1c-.7-1-1.1-1.7-3.3-1.7s-4.1,1.8-4.1,4.1.1,1.4.5,2"/>
      <path id="path821" data-name="path82" class="st0" d="M261.5,183.8h12.4c0,0,.8.7.8-1.7s-2.7-2.8-5.1-2.8-2.8.8-3.6,2c-.5-.5-.3-.7-1.8-.7s-2.7,1.2-2.7,2.7v.5"/>
    </g>
  </g>
</svg>