<?xml version="1.0" encoding="UTF-8" standalone="no"?>
<!-- Created with Inkscape (http://www.inkscape.org/) -->

<svg
   version="1.1"
   id="svg1"
   width="270"
   height="200"
   viewBox="0 0 270 200"
   sodipodi:docname="hero_smart_home.pdf"
   xmlns:inkscape="http://www.inkscape.org/namespaces/inkscape"
   xmlns:sodipodi="http://sodipodi.sourceforge.net/DTD/sodipodi-0.dtd"
   xmlns="http://www.w3.org/2000/svg"
   xmlns:svg="http://www.w3.org/2000/svg">
  <defs
     id="defs1" />
  <sodipodi:namedview
     id="namedview1"
     pagecolor="#ffffff"
     bordercolor="#000000"
     borderopacity="0.25"
     inkscape:showpageshadow="2"
     inkscape:pageopacity="0.0"
     inkscape:pagecheckerboard="0"
     inkscape:deskcolor="#d1d1d1">
    <inkscape:page
       x="0"
       y="0"
       inkscape:label="1"
       id="page1"
       width="270"
       height="200"
       margin="0"
       bleed="0" />
  </sodipodi:namedview>
  <g
     id="g1"
     inkscape:groupmode="layer"
     inkscape:label="1">
    <g
       id="group-R5">
      <path
         id="path2"
         d="m 553.949,786.164 c 7.18,11.496 11.395,25.039 11.395,39.594 0,41.39 -33.551,74.941 -74.946,74.941 -12.105,0 -23.503,-2.933 -33.625,-8.035 -12.687,41.777 -51.496,72.184 -97.418,72.184 -56.226,0 -101.804,-45.578 -101.804,-101.805 0,-1.172 0.047,-2.332 0.086,-3.496 -10.477,7.973 -23.508,12.758 -37.692,12.758 -34.449,0 -62.375,-27.926 -62.375,-62.375 0,-8.418 1.688,-16.438 4.711,-23.766 h 391.668"
         style="fill:#1e293b;fill-opacity:1;fill-rule:nonzero;stroke:none"
         transform="matrix(0.13333333,0,0,-0.13333333,0,200)" />
      <path
         id="path3"
         d="m 1763.87,909.047 c 0.51,3.582 0.86,7.211 0.86,10.933 0,42.903 -34.79,77.688 -77.69,77.688 -9.17,0 -17.94,-1.676 -26.11,-4.598 -5.48,57.43 -53.84,102.35 -112.71,102.35 -44.88,0 -83.65,-26.11 -101.98,-63.96 -9.92,3.19 -20.48,4.95 -31.46,4.95 -56.79,0 -102.82,-46.031 -102.82,-102.816 0,-8.477 1.14,-16.668 3.07,-24.547 h 448.84"
         style="fill:#1e293b;fill-opacity:1;fill-rule:nonzero;stroke:none"
         transform="matrix(0.13333333,0,0,-0.13333333,0,200)" />
      <path
         id="path4"
         d="m 617.473,200.422 c -0.106,0 -0.211,-0.012 -0.317,-0.024 0.199,2.082 0.317,4.18 0.317,6.313 0,35.988 -29.176,65.168 -65.168,65.168 -3.325,0 -6.563,-0.328 -9.75,-0.809 -2.668,24.52 -23.422,43.61 -48.653,43.61 -27.039,0 -48.957,-21.918 -48.957,-48.961 0,-5.391 0.907,-10.571 2.516,-15.418 -7.832,3.34 -16.449,5.187 -25.496,5.187 -35.996,0 -65.172,-29.179 -65.172,-65.168 0,-4.808 0.555,-9.468 1.539,-13.98 -0.082,-0.192 -0.184,-0.36 -0.266,-0.551 -8.164,4.992 -17.726,7.922 -28,7.922 -29.738,0 -53.843,-24.109 -53.843,-53.852 0,-3.597 0.371,-7.121 1.043,-10.519 64.125,0 128.25,0 192.375,0 47.164,0.012 94.328,0.019 141.488,0.031 0.07,-0.012 0.144,-0.019 0.219,-0.031 h 11.601 v -0.078 c 19.93,2.679 35.309,19.707 35.309,40.379 0,22.519 -18.258,40.781 -40.785,40.781"
         style="fill:#0f172a;fill-opacity:1;fill-rule:nonzero;stroke:none"
         transform="matrix(0.13333333,0,0,-0.13333333,0,200)" />
      <path
         id="path5"
         d="M 469.602,116.871 H 275.738 l -0.316,1.59 c -1.473,7.41 -2.754,22.078 5.168,37.258 12.238,23.429 36.582,28.519 39.316,29.031 17.657,3.238 31.789,-2.922 38.633,-6.891 l -1.98,-3.418 c -5.133,2.969 -18.895,9.547 -35.938,6.411 -2.539,-0.461 -25.152,-5.204 -36.519,-26.973 -6.836,-13.078 -6.297,-25.777 -5.09,-33.051 h 190.59 v -3.957"
         style="fill:#94a3b8;fill-opacity:1;fill-rule:nonzero;stroke:none"
         transform="matrix(0.13333333,0,0,-0.13333333,0,200)" />
      <path
         id="path6"
         d="m 619.445,200.281 -3.945,0.289 c 0.297,3.969 0.203,7.989 -0.273,11.942 -0.407,3.367 -4.731,33.316 -31.157,48.82 -16.257,9.527 -32.824,9.008 -41.246,7.859 l -0.539,3.918 c 8.945,1.243 26.512,1.762 43.785,-8.371 27.493,-16.117 32.379,-45.937 33.082,-51.75 0.508,-4.207 0.606,-8.476 0.293,-12.707"
         style="fill:#94a3b8;fill-opacity:1;fill-rule:nonzero;stroke:none"
         transform="matrix(0.13333333,0,0,-0.13333333,0,200)" />
      <path
         id="path7"
         d="m 469.602,116.871 v 3.957 h 147.871 c 4.16,0.063 18.664,1.223 29.257,13.363 8.622,9.868 9.551,21.079 9.551,25.438 0,11.152 -4.832,19.301 -7.715,23.16 -2.511,3.371 -9.675,11.531 -21.906,14.531 -4.617,1.129 -13.902,2.391 -24.105,-1.851 -10.676,-4.438 -16.387,-12.367 -18.836,-16.699 l -3.442,1.949 c 2.7,4.769 8.989,13.511 20.758,18.402 11.25,4.68 21.473,3.289 26.567,2.039 13.472,-3.301 21.367,-12.289 24.14,-16 3.172,-4.262 8.492,-13.238 8.496,-25.531 0,-4.809 -1.023,-17.168 -10.527,-28.047 -11.668,-13.363 -27.602,-14.641 -32.207,-14.711 H 469.602"
         style="fill:#94a3b8;fill-opacity:1;fill-rule:nonzero;stroke:none"
         transform="matrix(0.13333333,0,0,-0.13333333,0,200)" />
      <path
         id="path8"
         d="m 445.547,249.711 c -2.113,6.449 -2.93,13.098 -2.43,19.769 1.203,15.879 9.629,26.68 13.192,30.579 3.562,3.89 16.796,16.589 37.57,16.589 0.008,0 0.016,0 0.023,0 15.536,0 26.758,-7.128 32.067,-11.367 l -2.473,-3.09 c -4.902,3.918 -15.266,10.5 -29.594,10.508 -0.007,0 -0.015,0 -0.023,0 -19.156,0 -31.363,-11.719 -34.649,-15.308 -3.289,-3.602 -11.058,-13.551 -12.164,-28.211 -0.464,-6.149 0.289,-12.289 2.243,-18.239 l -3.762,-1.23"
         style="fill:#94a3b8;fill-opacity:1;fill-rule:nonzero;stroke:none"
         transform="matrix(0.13333333,0,0,-0.13333333,0,200)" />
      <path
         id="path9"
         d="m 354.813,190.309 c -0.02,8.793 1.605,17.211 4.832,25.023 9.496,23.02 32.332,39.859 56.82,41.898 25.277,2.04 43.594,-11.121 50.293,-16.902 l -2.586,-2.996 c -6.324,5.457 -23.59,17.918 -47.379,15.957 -23.047,-1.918 -44.547,-17.777 -53.492,-39.461 -3.024,-7.328 -4.551,-15.246 -4.531,-23.508 l -3.957,-0.011"
         style="fill:#94a3b8;fill-opacity:1;fill-rule:nonzero;stroke:none"
         transform="matrix(0.13333333,0,0,-0.13333333,0,200)" />
      <path
         id="path10"
         d="m 471.566,118.621 -3.933,0.461 c 0.402,3.469 1.719,21.477 -11.801,34.887 -9.863,9.781 -21.781,11.492 -26.445,11.769 -6.106,0.364 -12.367,-0.679 -18.153,-3.039 l -1.488,3.672 c 6.324,2.57 13.203,3.719 19.875,3.32 5.117,-0.312 18.18,-2.191 29,-12.91 14.817,-14.703 13.383,-34.371 12.945,-38.16"
         style="fill:#94a3b8;fill-opacity:1;fill-rule:nonzero;stroke:none"
         transform="matrix(0.13333333,0,0,-0.13333333,0,200)" />
      <path
         id="path11"
         d="m 353.563,157.719 c -0.645,7.679 0.703,15.082 3.898,21.41 8.883,17.59 30.777,27.07 49.852,21.609 15.105,-4.347 26.703,-17.168 30.265,-33.468 l -3.863,-0.84 c -3.254,14.879 -13.789,26.558 -27.496,30.5 -19.317,5.55 -38.168,-5.602 -45.227,-19.59 -2.867,-5.668 -4.07,-12.34 -3.488,-19.289 l -3.941,-0.332"
         style="fill:#94a3b8;fill-opacity:1;fill-rule:nonzero;stroke:none"
         transform="matrix(0.13333333,0,0,-0.13333333,0,200)" />
      <path
         id="path12"
         d="M 2007.78,116.871 H 116.859 v 3.957 H 2007.78 v -3.957"
         style="fill:#94a3b8;fill-opacity:1;fill-rule:nonzero;stroke:none"
         transform="matrix(0.13333333,0,0,-0.13333333,0,200)" />
      <path
         id="path13"
         d="m 1170.32,743.07 h -45.33 v 146.282 h 45.33 V 743.07"
         style="fill:#0f172a;fill-opacity:1;fill-rule:nonzero;stroke:none"
         transform="matrix(0.13333333,0,0,-0.13333333,0,200)" />
      <path
         id="path14"
         d="m 1126.96,745.051 h 41.38 v 142.324 h -41.38 z m 45.34,-3.953 h -49.29 v 150.234 h 49.29 V 741.098"
         style="fill:#94a3b8;fill-opacity:1;fill-rule:nonzero;stroke:none"
         transform="matrix(0.13333333,0,0,-0.13333333,0,200)" />
      <path
         id="path15"
         d="m 1107.71,912.859 h 79.88 v -23.507 h -79.88 v 23.507"
         style="fill:#0f172a;fill-opacity:1;fill-rule:nonzero;stroke:none"
         transform="matrix(0.13333333,0,0,-0.13333333,0,200)" />
      <path
         id="path16"
         d="m 1109.69,891.332 h 75.93 v 19.551 h -75.93 z m 79.88,-3.957 h -83.84 v 27.465 h 83.84 v -27.465"
         style="fill:#94a3b8;fill-opacity:1;fill-rule:nonzero;stroke:none"
         transform="matrix(0.13333333,0,0,-0.13333333,0,200)" />
      <path
         id="path17"
         d="M 894.527,1005.43 C 772.793,883.695 651.055,761.961 529.32,640.227 V 118.852 h 730.41 V 640.227 C 1138,761.961 1016.26,883.695 894.527,1005.43"
         style="fill:#0f172a;fill-opacity:1;fill-rule:nonzero;stroke:none"
         transform="matrix(0.13333333,0,0,-0.13333333,0,200)" />
      <path
         id="path18"
         d="M 531.297,120.828 H 1257.76 V 639.406 L 894.527,1002.63 531.297,639.406 Z m 730.413,-3.957 H 527.344 v 524.172 l 0.578,0.586 366.605,366.601 1.399,-1.4 365.784,-365.787 V 116.871"
         style="fill:#94a3b8;fill-opacity:1;fill-rule:nonzero;stroke:none"
         transform="matrix(0.13333333,0,0,-0.13333333,0,200)" />
      <path
         id="path19"
         d="m 1689.17,118.852 h -429.44 v 311.679 h 429.44 V 118.852"
         style="fill:#0f172a;fill-opacity:1;fill-rule:nonzero;stroke:none"
         transform="matrix(0.13333333,0,0,-0.13333333,0,200)" />
      <path
         id="path20"
         d="m 1261.71,120.828 h 425.48 v 307.731 h -425.48 z m 429.44,-3.957 h -433.39 v 315.641 h 433.39 V 116.871"
         style="fill:#94a3b8;fill-opacity:1;fill-rule:nonzero;stroke:none"
         transform="matrix(0.13333333,0,0,-0.13333333,0,200)" />
      <path
         id="path21"
         d="m 1775.45,416.68 c -57.52,57.519 -115.04,115.047 -172.56,172.566 -114.39,0 -228.77,0 -343.16,0 V 416.68 c 171.91,0 343.81,0 515.72,0"
         style="fill:#0f172a;fill-opacity:1;fill-rule:nonzero;stroke:none"
         transform="matrix(0.13333333,0,0,-0.13333333,0,200)" />
      <path
         id="path22"
         d="m 1261.71,418.66 h 508.96 l -168.6,168.61 h -340.36 z m 518.52,-3.949 h -522.47 v 176.516 h 345.95 l 0.57,-0.579 175.95,-175.937"
         style="fill:#94a3b8;fill-opacity:1;fill-rule:nonzero;stroke:none"
         transform="matrix(0.13333333,0,0,-0.13333333,0,200)" />
      <path
         id="path23"
         d="M 1689.17,152.34 H 529.32 v 3.961 h 1159.85 v -3.961"
         style="fill:#94a3b8;fill-opacity:1;fill-rule:nonzero;stroke:none"
         transform="matrix(0.13333333,0,0,-0.13333333,0,200)" />
      <path
         id="path24"
         d="M 1294.4,603.098 1311.96,620.66 894.527,1038.1 735.539,879.105 v 0 L 477.094,620.66 494.656,603.098 735.539,843.98 976.418,603.098 993.98,620.66 753.102,861.543 894.527,1002.97 1294.4,603.098"
         style="fill:#0f172a;fill-opacity:1;fill-rule:nonzero;stroke:none"
         transform="matrix(0.13333333,0,0,-0.13333333,0,200)" />
      <path
         id="path25"
         d="m 943.73,118.852 h -3.953 V 636.945 L 735.535,841.184 530.719,636.363 527.922,639.164 735.535,846.777 943.73,638.582 v -519.73"
         style="fill:#94a3b8;fill-opacity:1;fill-rule:nonzero;stroke:none"
         transform="matrix(0.13333333,0,0,-0.13333333,0,200)" />
      <path
         id="path26"
         d="m 976.422,600.301 -21.969,21.969 2.797,2.8 19.172,-19.172 14.762,14.762 -240.879,240.887 144.222,144.223 1.399,-1.4 365.204,-365.198 -2.79,-2.805 L 894.527,1000.17 755.898,861.547 996.777,620.66 976.422,600.301"
         style="fill:#94a3b8;fill-opacity:1;fill-rule:nonzero;stroke:none"
         transform="matrix(0.13333333,0,0,-0.13333333,0,200)" />
      <path
         id="path27"
         d="m 1294.4,600.301 -20.6,20.601 2.79,2.801 17.81,-17.805 14.76,14.762 -414.633,414.64 -414.636,-414.64 14.761,-14.762 23.266,23.262 2.797,-2.801 -26.063,-26.058 -20.355,20.359 1.398,1.403 418.832,418.827 1.399,-1.39 418.834,-418.84 -20.36,-20.359"
         style="fill:#94a3b8;fill-opacity:1;fill-rule:nonzero;stroke:none"
         transform="matrix(0.13333333,0,0,-0.13333333,0,200)" />
      <path
         id="path37"
         d="m 941.891,430.531 c -0.047,0 -0.09,0 -0.137,0 -137.477,0 -274.953,0 -412.434,0 -0.043,0 -0.09,0 -0.132,0 -21.551,-21.543 -43.102,-43.09 -64.649,-64.64 v -22.672 h 542.001 v 22.672 c -21.552,21.55 -43.102,43.097 -64.649,64.64"
         style="fill:#0f172a;fill-opacity:1;fill-rule:nonzero;stroke:none"
         transform="matrix(0.13333333,0,0,-0.13333333,0,200)" />
      <path
         id="path38"
         d="m 466.516,345.199 h 538.044 v 19.871 l -63.49,63.489 H 530.008 L 466.516,365.07 Z m 542.004,-3.961 H 462.559 v 25.473 l 65.808,65.801 h 414.207 l 0.715,-0.571 65.231,-65.23 v -25.473"
         style="fill:#94a3b8;fill-opacity:1;fill-rule:nonzero;stroke:none"
         transform="matrix(0.13333333,0,0,-0.13333333,0,200)" />
      <path
         id="path39"
         d="M 670.891,363.91 H 464.539 v 3.961 h 206.352 v -3.961"
         style="fill:#94a3b8;fill-opacity:1;fill-rule:nonzero;stroke:none"
         transform="matrix(0.13333333,0,0,-0.13333333,0,200)" />
      <path
         id="path40"
         d="M 1006.54,363.91 H 800.184 v 3.961 h 206.356 v -3.961"
         style="fill:#94a3b8;fill-opacity:1;fill-rule:nonzero;stroke:none"
         transform="matrix(0.13333333,0,0,-0.13333333,0,200)" />
      <path
         id="path41"
         d="M 1004.97,341.238 H 462.969 v 3.961 h 542.001 v -3.961"
         style="fill:#94a3b8;fill-opacity:1;fill-rule:nonzero;stroke:none"
         transform="matrix(0.13333333,0,0,-0.13333333,0,200)" />
      <path
         id="path42"
         d="m 648.223,118.852 h 18.609 V 343.219 H 648.223 V 118.852"
         style="fill:#0f172a;fill-opacity:1;fill-rule:nonzero;stroke:none"
         transform="matrix(0.13333333,0,0,-0.13333333,0,200)" />
      <path
         id="path43"
         d="m 650.199,120.828 h 14.653 v 220.41 h -14.653 z m 18.61,-3.957 h -22.563 v 228.328 h 22.563 V 116.871"
         style="fill:#94a3b8;fill-opacity:1;fill-rule:nonzero;stroke:none"
         transform="matrix(0.13333333,0,0,-0.13333333,0,200)" />
      <path
         id="path44"
         d="m 804.246,118.852 h 18.606 V 343.219 H 804.246 V 118.852"
         style="fill:#0f172a;fill-opacity:1;fill-rule:nonzero;stroke:none"
         transform="matrix(0.13333333,0,0,-0.13333333,0,200)" />
      <path
         id="path45"
         d="m 806.223,120.828 h 14.652 v 220.41 h -14.652 z m 18.605,-3.957 h -22.562 v 228.328 h 22.562 V 116.871"
         style="fill:#94a3b8;fill-opacity:1;fill-rule:nonzero;stroke:none"
         transform="matrix(0.13333333,0,0,-0.13333333,0,200)" />
      <path
         id="path46"
         d="m 821.453,341.82 -85.918,85.918 -85.914,-85.918 -2.797,2.801 88.711,88.707 88.715,-88.707 -2.797,-2.801"
         style="fill:#94a3b8;fill-opacity:1;fill-rule:nonzero;stroke:none"
         transform="matrix(0.13333333,0,0,-0.13333333,0,200)" />
      <path
         id="path47"
         d="M 687.074,294.559 V 118.852 H 784 v 175.707 h -96.926"
         style="fill:#0f172a;fill-opacity:1;fill-rule:nonzero;stroke:none"
         transform="matrix(0.13333333,0,0,-0.13333333,0,200)" />
      <path
         id="path48"
         d="m 689.055,120.828 h 92.965 v 171.754 h -92.965 z m 96.922,-3.957 H 685.098 V 296.539 H 785.977 V 116.871"
         style="fill:#94a3b8;fill-opacity:1;fill-rule:nonzero;stroke:none"
         transform="matrix(0.13333333,0,0,-0.13333333,0,200)" />
      <path
         id="path49"
         d="m 784,292.582 h -96.926 v 3.957 H 784 v -3.957"
         style="fill:#94a3b8;fill-opacity:1;fill-rule:nonzero;stroke:none"
         transform="matrix(0.13333333,0,0,-0.13333333,0,200)" />
      <path
         id="path50"
         d="m 784,234.012 h -96.926 v 3.957 H 784 v -3.957"
         style="fill:#94a3b8;fill-opacity:1;fill-rule:nonzero;stroke:none"
         transform="matrix(0.13333333,0,0,-0.13333333,0,200)" />
      <path
         id="path51"
         d="m 784,175.441 h -96.926 v 3.957 H 784 v -3.957"
         style="fill:#94a3b8;fill-opacity:1;fill-rule:nonzero;stroke:none"
         transform="matrix(0.13333333,0,0,-0.13333333,0,200)" />
      <path
         id="path52"
         d="m 784,116.871 h -96.926 v 3.957 H 784 v -3.957"
         style="fill:#94a3b8;fill-opacity:1;fill-rule:nonzero;stroke:none"
         transform="matrix(0.13333333,0,0,-0.13333333,0,200)" />
      <path
         id="path53"
         d="m 737.516,118.852 h -3.957 v 175.707 h 3.957 V 118.852"
         style="fill:#94a3b8;fill-opacity:1;fill-rule:nonzero;stroke:none"
         transform="matrix(0.13333333,0,0,-0.13333333,0,200)" />
      <path
         id="path59"
         d="m 1609.35,118.852 h -269.8 V 314.68 h 269.8 V 118.852"
         style="fill:#0f172a;fill-opacity:1;fill-rule:nonzero;stroke:none"
         transform="matrix(0.13333333,0,0,-0.13333333,0,200)" />
      <path
         id="path60"
         d="m 1341.53,120.828 h 265.85 v 191.871 h -265.85 z m 269.8,-3.957 h -273.76 v 199.777 h 273.76 V 116.871"
         style="fill:#94a3b8;fill-opacity:1;fill-rule:nonzero;stroke:none"
         transform="matrix(0.13333333,0,0,-0.13333333,0,200)" />
      <path
         id="path61"
         d="m 1609.35,312.699 h -269.8 v 3.949 h 269.8 v -3.949"
         style="fill:#94a3b8;fill-opacity:1;fill-rule:nonzero;stroke:none"
         transform="matrix(0.13333333,0,0,-0.13333333,0,200)" />
      <path
         id="path62"
         d="m 1609.35,263.738 h -269.8 v 3.961 h 269.8 v -3.961"
         style="fill:#94a3b8;fill-opacity:1;fill-rule:nonzero;stroke:none"
         transform="matrix(0.13333333,0,0,-0.13333333,0,200)" />
      <path
         id="path63"
         d="m 1609.35,214.781 h -269.8 v 3.957 h 269.8 v -3.957"
         style="fill:#94a3b8;fill-opacity:1;fill-rule:nonzero;stroke:none"
         transform="matrix(0.13333333,0,0,-0.13333333,0,200)" />
      <path
         id="path64"
         d="m 1609.35,165.828 h -269.8 v 3.961 h 269.8 v -3.961"
         style="fill:#94a3b8;fill-opacity:1;fill-rule:nonzero;stroke:none"
         transform="matrix(0.13333333,0,0,-0.13333333,0,200)" />
      <path
         id="path65"
         d="m 1609.35,116.871 h -269.8 v 3.957 h 269.8 v -3.957"
         style="fill:#94a3b8;fill-opacity:1;fill-rule:nonzero;stroke:none"
         transform="matrix(0.13333333,0,0,-0.13333333,0,200)" />
      <path
         id="path66"
         d="m 1376.85,387.301 h -37.3 v -43.66 h 37.3 v 43.66"
         style="fill:#1e293b;fill-opacity:1;fill-rule:nonzero;stroke:none"
         transform="matrix(0.13333333,0,0,-0.13333333,0,200)" />
      <path
         id="path67"
         d="m 1434.98,387.301 h -37.31 v -43.66 h 37.31 v 43.66"
         style="fill:#1e293b;fill-opacity:1;fill-rule:nonzero;stroke:none"
         transform="matrix(0.13333333,0,0,-0.13333333,0,200)" />
      <path
         id="path68"
         d="m 1493.1,387.301 h -37.3 v -43.66 h 37.3 v 43.66"
         style="fill:#1e293b;fill-opacity:1;fill-rule:nonzero;stroke:none"
         transform="matrix(0.13333333,0,0,-0.13333333,0,200)" />
      <path
         id="path69"
         d="m 1551.23,387.301 h -37.31 v -43.66 h 37.31 v 43.66"
         style="fill:#1e293b;fill-opacity:1;fill-rule:nonzero;stroke:none"
         transform="matrix(0.13333333,0,0,-0.13333333,0,200)" />
      <path
         id="path70"
         d="m 1609.35,387.301 h -37.3 v -43.66 h 37.3 v 43.66"
         style="fill:#1e293b;fill-opacity:1;fill-rule:nonzero;stroke:none"
         transform="matrix(0.13333333,0,0,-0.13333333,0,200)" />
      <path
         id="path71"
         d="m 1800.6,118.852 h -3.95 v 179.98 h 3.95 v -179.98"
         style="fill:#94a3b8;fill-opacity:1;fill-rule:nonzero;stroke:none"
         transform="matrix(0.13333333,0,0,-0.13333333,0,200)" />
      <path
         id="path72"
         d="m 1797.33,143.898 -84.85,84.852 2.8,2.801 84.85,-84.852 -2.8,-2.801"
         style="fill:#94a3b8;fill-opacity:1;fill-rule:nonzero;stroke:none"
         transform="matrix(0.13333333,0,0,-0.13333333,0,200)" />
      <path
         id="path73"
         d="m 1800.71,166.41 -2.8,2.801 43.86,43.859 2.8,-2.8 -43.86,-43.86"
         style="fill:#94a3b8;fill-opacity:1;fill-rule:nonzero;stroke:none"
         transform="matrix(0.13333333,0,0,-0.13333333,0,200)" />
      <path
         id="path74"
         d="m 1865.26,298.832 c 0,-36.801 -29.83,-66.641 -66.64,-66.641 -36.8,0 -66.63,29.84 -66.63,66.641 0,36.797 29.83,66.637 66.63,66.637 36.81,0 66.64,-29.84 66.64,-66.637"
         style="fill:#0f172a;fill-opacity:1;fill-rule:nonzero;stroke:none"
         transform="matrix(0.13333333,0,0,-0.13333333,0,200)" />
      <path
         id="path75"
         d="m 1798.62,363.488 c -35.65,0 -64.66,-29.008 -64.66,-64.656 0,-35.652 29.01,-64.66 64.66,-64.66 35.66,0 64.67,29.008 64.67,64.66 0,35.648 -29.01,64.656 -64.67,64.656 z m 0,-133.277 c -37.83,0 -68.61,30.777 -68.61,68.621 0,37.84 30.78,68.617 68.61,68.617 37.84,0 68.62,-30.777 68.62,-68.617 0,-37.844 -30.78,-68.621 -68.62,-68.621"
         style="fill:#94a3b8;fill-opacity:1;fill-rule:nonzero;stroke:none"
         transform="matrix(0.13333333,0,0,-0.13333333,0,200)" />
      <path
         id="path76"
         d="m 1746.15,230.141 c 0,-17.821 -14.44,-32.27 -32.27,-32.27 -17.82,0 -32.27,14.449 -32.27,32.27 0,17.828 14.45,32.269 32.27,32.269 17.83,0 32.27,-14.441 32.27,-32.269"
         style="fill:#0f172a;fill-opacity:1;fill-rule:nonzero;stroke:none"
         transform="matrix(0.13333333,0,0,-0.13333333,0,200)" />
      <path
         id="path77"
         d="m 1713.88,260.441 c -16.7,0 -30.29,-13.589 -30.29,-30.293 0,-16.707 13.59,-30.296 30.29,-30.296 16.7,0 30.29,13.589 30.29,30.296 0,16.704 -13.59,30.293 -30.29,30.293 z m 0,-64.55 c -18.88,0 -34.25,15.371 -34.25,34.257 0,18.883 15.37,34.243 34.25,34.243 18.89,0 34.25,-15.36 34.25,-34.243 0,-18.886 -15.36,-34.257 -34.25,-34.257"
         style="fill:#94a3b8;fill-opacity:1;fill-rule:nonzero;stroke:none"
         transform="matrix(0.13333333,0,0,-0.13333333,0,200)" />
      <path
         id="path78"
         d="m 1887.72,230.141 c 0,-24.602 -19.94,-44.551 -44.55,-44.551 -24.6,0 -44.55,19.949 -44.55,44.551 0,24.609 19.95,44.55 44.55,44.55 24.61,0 44.55,-19.941 44.55,-44.55"
         style="fill:#0f172a;fill-opacity:1;fill-rule:nonzero;stroke:none"
         transform="matrix(0.13333333,0,0,-0.13333333,0,200)" />
      <path
         id="path79"
         d="m 1843.17,272.711 c -23.47,0 -42.57,-19.09 -42.57,-42.563 0,-23.476 19.1,-42.578 42.57,-42.578 23.48,0 42.58,19.102 42.58,42.578 0,23.473 -19.1,42.563 -42.58,42.563 z m 0,-89.09 c -25.65,0 -46.52,20.867 -46.52,46.527 0,25.653 20.87,46.524 46.52,46.524 25.66,0 46.53,-20.871 46.53,-46.524 0,-25.66 -20.87,-46.527 -46.53,-46.527"
         style="fill:#94a3b8;fill-opacity:1;fill-rule:nonzero;stroke:none"
         transform="matrix(0.13333333,0,0,-0.13333333,0,200)" />
      <path
         id="path80"
         d="m 1747.94,118.852 c 3.42,6.378 5.38,13.66 5.38,21.41 0,25.039 -20.3,45.328 -45.34,45.328 -15.19,0 -28.6,-7.488 -36.83,-18.961 -2.71,0.75 -5.56,1.18 -8.51,1.18 -17.69,0 -32.03,-14.348 -32.03,-32.039 0,-6.219 1.8,-12.008 4.87,-16.918 h 112.46"
         style="fill:#0f172a;fill-opacity:1;fill-rule:nonzero;stroke:none"
         transform="matrix(0.13333333,0,0,-0.13333333,0,200)" />
      <path
         id="path81"
         d="m 1636.6,120.828 h 110.1 c 2.13,4.684 9.47,23.66 -1.78,42.07 -11.32,18.512 -31.76,20.442 -34.06,20.59 -2.09,0.153 -20.93,0.922 -34.56,-13.687 -8.57,-9.18 -10.86,-19.789 -11.47,-25.301 l -3.93,0.441 c 0.5,4.547 2.06,12.309 6.88,20.161 -4.4,0.738 -12.69,1.168 -20.8,-3.711 -11.77,-7.082 -13.86,-19.532 -14.16,-21.95 -1.01,-8.25 1.71,-14.91 3.78,-18.613 z m 112.54,-3.957 h -114.79 l -0.58,0.949 c -2.36,3.879 -6.12,11.899 -4.87,22.102 0.34,2.738 2.7,16.828 16.04,24.859 10.4,6.258 21.01,4.84 25.25,3.867 0.97,1.301 2.04,2.59 3.22,3.852 14.57,15.609 34,15.211 37.72,14.941 2.51,-0.171 24.81,-2.269 37.16,-22.48 13.84,-22.641 1.92,-46.039 1.41,-47.031 l -0.56,-1.059"
         style="fill:#94a3b8;fill-opacity:1;fill-rule:nonzero;stroke:none"
         transform="matrix(0.13333333,0,0,-0.13333333,0,200)" />
      <path
         id="path82"
         d="m 1957.67,118.84 c 0.37,1.871 0.58,3.789 0.58,5.769 0,16.403 -13.3,29.7 -29.7,29.7 -8,0 -15.24,-3.168 -20.58,-8.309 -8.51,13.109 -23.26,21.789 -40.06,21.789 -26.38,0 -47.77,-21.391 -47.77,-47.769 0,-0.399 0.05,-0.79 0.06,-1.18 h 137.47"
         style="fill:#0f172a;fill-opacity:1;fill-rule:nonzero;stroke:none"
         transform="matrix(0.13333333,0,0,-0.13333333,0,200)" />
      <path
         id="path83"
         d="m 1957.68,116.859 h -139.45 l -0.01,1.969 c -0.12,19.781 11.05,37.91 28.48,46.192 24.77,11.761 48.09,-3.141 48.33,-3.301 15.63,-10.168 20.38,-25.821 21.7,-32.078 l -3.87,-0.813 c -1.22,5.774 -5.6,20.211 -19.99,29.582 -0.22,0.141 -21.67,13.852 -44.47,3.031 -15.47,-7.339 -25.59,-23.14 -26.2,-40.621 h 135.48 v -3.961"
         style="fill:#94a3b8;fill-opacity:1;fill-rule:nonzero;stroke:none"
         transform="matrix(0.13333333,0,0,-0.13333333,0,200)" />
      <path
         id="path84"
         d="m 1956.15,127.129 c -1.65,11.781 -10.04,21.57 -20.88,24.34 -12.97,3.32 -23.5,-4.797 -24.67,-5.739 l -2.48,3.079 c 2.15,1.73 13.6,10.203 28.13,6.5 12.57,-3.219 21.92,-14.071 23.82,-27.629 l -3.92,-0.551"
         style="fill:#94a3b8;fill-opacity:1;fill-rule:nonzero;stroke:none"
         transform="matrix(0.13333333,0,0,-0.13333333,0,200)" />

    </g>
  </g>
</svg>
